<svg width="297" height="54" fill="none" xmlns="http://www.w3.org/2000/svg"><g clip-path="url(#clip0)"><path d="M9.301 46.469h-.933a3.177 3.177 0 00-1.052-1.832 2.882 2.882 0 00-.919-.542 3.05 3.05 0 00-1.112-.197 3.127 3.127 0 00-1.754.527c-.554.39-.993.934-1.27 1.572a6.904 6.904 0 000 5.008c.273.64.713 1.186 1.27 1.572a3.07 3.07 0 001.754.527 3.05 3.05 0 001.112-.197 3.02 3.02 0 001.598-1.352c.18-.315.306-.66.373-1.022h.933a4.283 4.283 0 01-1.321 2.484 4 4 0 01-1.21.74 3.95 3.95 0 01-1.492.267 3.968 3.968 0 01-2.24-.677 4.499 4.499 0 01-1.545-1.965 7.813 7.813 0 01-.554-2.893c0-.993.188-1.977.554-2.893.32-.778.836-1.45 1.493-1.942a3.968 3.968 0 012.277-.676 4.114 4.114 0 011.493.268c.442.167.851.417 1.209.739.7.642 1.167 1.52 1.321 2.484h.015zm13.094 2.004a6.998 6.998 0 01-.56 2.91 4.597 4.597 0 01-1.553 1.91 4.196 4.196 0 01-2.277.675 4.196 4.196 0 01-2.276-.676 4.6 4.6 0 01-1.546-1.91 7.814 7.814 0 01-.553-2.893c0-.993.188-1.977.553-2.893a4.603 4.603 0 011.56-1.91 4.182 4.182 0 012.274-.676c.802 0 1.589.234 2.273.676a4.658 4.658 0 011.552 1.91c.385.904.573 1.887.553 2.877zm-.896 0a5.987 5.987 0 00-.463-2.46 3.627 3.627 0 00-1.239-1.572 3.106 3.106 0 00-1.792-.543 3.064 3.064 0 00-1.784.542 3.64 3.64 0 00-1.246 1.573 5.961 5.961 0 00-.463 2.46c-.02.846.136 1.685.455 2.461a3.67 3.67 0 001.247 1.572 3.05 3.05 0 001.791.55 3.106 3.106 0 001.792-.542 3.64 3.64 0 001.247-1.572c.326-.777.484-1.62.462-2.469H21.5zm13.653-5.345v10.691h-.903l-5.972-8.954h-.075v8.954h-.955V43.128h.896l6.017 8.962h.082v-8.962h.91zm10.81 2.672a2.044 2.044 0 00-.227-.796 1.94 1.94 0 00-.52-.626 2.65 2.65 0 00-1.672-.527 2.856 2.856 0 00-1.247.26 1.97 1.97 0 00-.843.707 1.744 1.744 0 00-.306 1.022c-.005.26.055.517.171.747.12.228.286.427.486.581.203.158.424.29.657.394.243.105.492.194.746.267l1.068.322c.333.096.66.217.977.362.317.144.615.329.889.55.264.213.485.48.65.786.167.35.25.74.238 1.132a2.852 2.852 0 01-.425 1.572c-.3.474-.718.85-1.21 1.085a4.697 4.697 0 01-3.687 0 2.92 2.92 0 01-1.232-.967 2.91 2.91 0 01-.493-1.485h.956c.019.392.158.767.395 1.069.24.304.551.534.904.668a3.3 3.3 0 001.239.228c.463.01.923-.081 1.35-.267.374-.169.696-.44.934-.787.225-.326.343-.72.336-1.124a1.55 1.55 0 00-.261-.912 2.262 2.262 0 00-.747-.62 6.594 6.594 0 00-1.112-.44l-1.217-.378a4.5 4.5 0 01-1.851-1.038 2.232 2.232 0 01-.5-.77 2.33 2.33 0 01-.157-.92 2.66 2.66 0 01.433-1.517 3.07 3.07 0 011.194-1.03 3.792 3.792 0 011.687-.362 3.657 3.657 0 011.672.362c.464.225.865.571 1.165 1.006.283.428.441.933.455 1.454l-.895-.007zm5.255-1.776v-.896h7.36v.896H55.36v9.795h-.926v-9.795h-3.217zm12.041 9.796V43.127h3.277a3.625 3.625 0 011.806.408 2.7 2.7 0 011.083 1.133 3.64 3.64 0 01.366 1.658 3.558 3.558 0 01-.366 1.628c-.25.48-.632.87-1.098 1.116a3.646 3.646 0 01-1.791.4h-2.777v-.864h2.77c.455.015.907-.082 1.32-.283a1.74 1.74 0 00.747-.786c.18-.375.27-.79.261-1.21a2.774 2.774 0 00-.26-1.227 1.873 1.873 0 00-.792-.786 2.797 2.797 0 00-1.291-.291h-2.315v9.795h-.94zM67.737 49l2.493 4.82h-1.067L66.692 49h1.045zm13.698-5.872h.926v7.075a3.94 3.94 0 01-.486 1.95 3.639 3.639 0 01-1.35 1.352 4.365 4.365 0 01-2.009.491 4.365 4.365 0 01-2.008-.491 3.5 3.5 0 01-1.358-1.352 3.88 3.88 0 01-.486-1.942v-7.075h.926v7.012a3.08 3.08 0 00.366 1.517 2.65 2.65 0 001.015 1.006 3.293 3.293 0 001.541.385c.536 0 1.064-.131 1.542-.385a2.69 2.69 0 001.023-1.045 3.17 3.17 0 00.358-1.517v-6.981zm7.144 0v10.691h-.926V43.128h.926zm13.205 0v10.691h-.903l-5.972-8.954h-.104v8.954h-.933V43.128h.933l5.972 8.962h.082v-8.962h.925zm8.272 10.692h-2.986V43.127h3.15a4.678 4.678 0 012.493.636 4.101 4.101 0 011.59 1.832c.37.908.56 1.886.56 2.873 0 .988-.19 1.966-.56 2.874a4.134 4.134 0 01-1.635 1.847 5.007 5.007 0 01-2.612.63zm-2.053-.873h1.993a4.127 4.127 0 002.195-.543 3.347 3.347 0 001.321-1.572 5.86 5.86 0 00.44-2.398 6.005 6.005 0 00-.433-2.358 3.275 3.275 0 00-1.269-1.573 3.819 3.819 0 00-2.075-.534h-2.172v8.978zm20.013-4.474a6.879 6.879 0 01-.567 2.91 4.543 4.543 0 01-1.553 1.91 4.182 4.182 0 01-2.273.676 4.184 4.184 0 01-2.273-.677 4.49 4.49 0 01-1.553-1.91 7.724 7.724 0 01-.567-2.909c0-1 .193-1.99.567-2.908a4.593 4.593 0 011.553-1.91 4.184 4.184 0 012.273-.677c.803 0 1.589.234 2.273.676a4.598 4.598 0 011.553 1.942 6.88 6.88 0 01.567 2.877zm-.903 0a5.993 5.993 0 00-.455-2.46 3.646 3.646 0 00-1.247-1.572 3.237 3.237 0 00-1.788-.543c-.632 0-1.252.188-1.788.542a3.696 3.696 0 00-1.246 1.573 6.878 6.878 0 000 4.921 3.655 3.655 0 001.239 1.572 3.227 3.227 0 001.791.547c.635 0 1.256-.19 1.792-.547.55-.387.983-.932 1.247-1.572a5.994 5.994 0 00.455-2.46zm20.17-5.345v10.691h-.903l-5.972-8.954h-.067v8.954h-.926V43.128h.896l6.002 8.962h.082v-8.962h.888zm13.624 5.345a6.895 6.895 0 01-.568 2.91 4.595 4.595 0 01-1.552 1.91 4.184 4.184 0 01-2.273.676c-.803 0-1.59-.234-2.274-.677a4.489 4.489 0 01-1.552-1.91 7.724 7.724 0 01-.567-2.909c0-1 .193-1.99.567-2.908a4.53 4.53 0 011.552-1.91 4.185 4.185 0 012.274-.677c.802 0 1.589.234 2.273.676a4.663 4.663 0 011.552 1.942 6.88 6.88 0 01.568 2.877zm-.904 0a6.115 6.115 0 00-.455-2.46 3.691 3.691 0 00-1.247-1.572 3.233 3.233 0 00-1.787-.543c-.633 0-1.253.188-1.788.542a3.691 3.691 0 00-1.247 1.573 6.878 6.878 0 000 4.921 3.603 3.603 0 001.239 1.572 3.23 3.23 0 001.792.547c.634 0 1.255-.19 1.791-.547a3.58 3.58 0 001.247-1.572 5.977 5.977 0 00.455-2.46zm5.278-5.345l3.173 9.433h.089l3.173-9.433h.97l-3.687 10.691h-.993l-3.695-10.691h.97zm10.891 10.692h-.977l3.695-10.692h1.015l3.695 10.691h-.97l-3.188-9.434h-.067l-3.203 9.434zm.695-4.097h5.039v.873h-5.039v-.873zm16.557-3.923a2.01 2.01 0 00-.225-.797 1.914 1.914 0 00-.522-.625 2.635 2.635 0 00-1.672-.527 2.854 2.854 0 00-1.246.26 2.074 2.074 0 00-.844.707 1.798 1.798 0 00-.306 1.022c-.005.261.057.52.179.747.115.214.273.399.463.542.206.154.426.286.657.393.243.105.493.194.746.267l1.068.323c.331.096.656.217.97.361.318.143.616.328.889.55.264.214.485.481.649.787.173.354.258.75.247 1.148a2.91 2.91 0 01-.419 1.572 2.98 2.98 0 01-1.209 1.085 4.71 4.71 0 01-3.695 0 2.907 2.907 0 01-1.194-1.007 2.915 2.915 0 01-.493-1.485h.955c.02.392.158.767.396 1.069.239.304.551.535.903.668a3.28 3.28 0 001.24.228c.463.01.922-.082 1.351-.267.37-.17.69-.441.925-.786.231-.324.351-.72.344-1.124a1.5 1.5 0 00-.269-.913 2.19 2.19 0 00-.746-.62 6.533 6.533 0 00-1.105-.44l-1.217-.378a4.45 4.45 0 01-1.851-1.038 2.228 2.228 0 01-.504-.77 2.327 2.327 0 01-.161-.92 2.667 2.667 0 01.441-1.517 3.017 3.017 0 011.187-1.03 3.847 3.847 0 011.694-.362 3.676 3.676 0 011.672.362c.462.224.861.57 1.157 1.006.286.427.447.933.463 1.455l-.918.055zm16.244-2.672h.925v7.712a3.806 3.806 0 01-.358 1.745 2.304 2.304 0 01-.97 1.038 2.867 2.867 0 01-1.419.346 3.124 3.124 0 01-1.411-.307 2.402 2.402 0 01-.978-.873 2.458 2.458 0 01-.35-1.305h.925c-.004.297.079.589.239.834.162.248.387.444.65.566.294.143.616.213.94.204.33.007.656-.074.948-.236.279-.174.502-.43.642-.739.168-.4.247-.836.232-1.273l-.015-7.712zm14.541 5.345a6.99 6.99 0 01-.559 2.91 4.543 4.543 0 01-1.553 1.91 4.184 4.184 0 01-2.273.676 4.18 4.18 0 01-2.273-.677 4.49 4.49 0 01-1.553-1.91 7.724 7.724 0 01-.567-2.909c0-1 .193-1.99.567-2.908a4.533 4.533 0 011.553-1.91 4.18 4.18 0 012.273-.677c.802 0 1.589.234 2.273.676a4.605 4.605 0 011.553 1.942 7.01 7.01 0 01.559 2.877zm-.895 0a5.996 5.996 0 00-.463-2.46 3.628 3.628 0 00-1.239-1.572 3.239 3.239 0 00-1.788-.543c-.633 0-1.253.188-1.788.542a3.691 3.691 0 00-1.247 1.573 6.878 6.878 0 000 4.921 3.603 3.603 0 001.239 1.572 3.23 3.23 0 001.792.547 3.23 3.23 0 001.792-.547 3.64 3.64 0 001.246-1.572 5.994 5.994 0 00.456-2.46zm5.74 5.347V43.127h3.277a3.627 3.627 0 011.807.408c.464.254.846.648 1.097 1.133.251.512.377 1.082.366 1.658a3.558 3.558 0 01-.366 1.651 2.62 2.62 0 01-1.097 1.116 3.65 3.65 0 01-1.792.401h-2.792v-.888h2.762a2.77 2.77 0 001.322-.283c.339-.162.618-.438.791-.786.18-.375.27-.79.261-1.21a2.778 2.778 0 00-.261-1.227 1.874 1.874 0 00-.791-.786 2.799 2.799 0 00-1.329-.291h-2.329v9.795h-.926zm4.479-4.82l2.493 4.82h-1.067L232.48 49h1.053zm14.833-5.872v10.691h-.896l-5.972-8.954h-.082v8.954h-.926V43.128h.896l6.024 8.962h.075v-8.962h.881zm5.315 10.692h-.97l3.687-10.692h.993l3.695 10.691h-.97l-3.188-9.434h-.067l-3.18 9.434zm.694-4.097h5.039v.873h-5.039v-.873zm14.019 4.097h-2.986V43.127h3.151a4.678 4.678 0 012.493.636 4.143 4.143 0 011.597 1.832c.37.908.56 1.886.56 2.873 0 .988-.19 1.966-.56 2.874a4.129 4.129 0 01-1.672 1.84 5.01 5.01 0 01-2.583.636zm-2.045-.873h1.993a4.127 4.127 0 002.195-.543 3.347 3.347 0 001.321-1.572 6.76 6.76 0 000-4.78 3.28 3.28 0 00-1.269-1.572 3.82 3.82 0 00-2.075-.535h-2.165v9.002zm11.227.873h-.97l3.687-10.692h.993l3.695 10.691h-.97l-3.188-9.434h-.067l-3.18 9.434zm.694-4.097h5.039v.873h-5.039v-.873zm16.595-3.923a2.026 2.026 0 00-.226-.797 1.917 1.917 0 00-.521-.625 2.627 2.627 0 00-1.664-.527 2.855 2.855 0 00-1.254.26c-.336.15-.625.395-.836.707a1.741 1.741 0 00-.306 1.022c-.005.26.054.517.171.747.116.216.277.401.471.542.203.157.424.29.656.393.244.105.493.195.747.267l1.067.323c.332.094.656.215.971.361.319.143.62.328.896.55.264.214.485.481.649.787.169.356.253.75.246 1.148a2.847 2.847 0 01-.425 1.572 2.987 2.987 0 01-1.209 1.085 4.698 4.698 0 01-3.688 0 2.912 2.912 0 01-1.262-.944 2.905 2.905 0 01-.492-1.485h.955c.019.392.158.767.396 1.069a2.1 2.1 0 00.903.668 3.27 3.27 0 001.239.228c.463.01.923-.081 1.351-.267a2.27 2.27 0 00.934-.787 1.92 1.92 0 00.335-1.124 1.5 1.5 0 00-.268-.912 2.184 2.184 0 00-.747-.62 6.216 6.216 0 00-1.105-.44l-1.216-.378a4.506 4.506 0 01-1.852-1.038 2.24 2.24 0 01-.5-.77 2.323 2.323 0 01-.157-.92 2.671 2.671 0 01.433-1.517 3.029 3.029 0 011.195-1.03 3.79 3.79 0 011.687-.362 3.656 3.656 0 011.672.362c.462.224.861.57 1.157 1.006.289.425.45.932.463 1.454l-.866-.007zM26.067 13.82h-7.659a5.742 5.742 0 00-.425-1.816 4.407 4.407 0 00-.949-1.407 4.091 4.091 0 00-1.493-.912 5.348 5.348 0 00-1.94-.322 5.252 5.252 0 00-3.15.967 5.949 5.949 0 00-1.986 2.79 12.609 12.609 0 00-.672 4.364 12.84 12.84 0 00.657 4.528 5.577 5.577 0 002 2.68 5.332 5.332 0 003.136.913 5.783 5.783 0 001.873-.283 4.287 4.287 0 001.441-.787c.415-.358.76-.799 1.015-1.297a5.27 5.27 0 00.523-1.698l7.659.063a11.217 11.217 0 01-.993 3.781 12.237 12.237 0 01-2.419 3.546 11.714 11.714 0 01-3.881 2.602 13.48 13.48 0 01-5.368.99 13.55 13.55 0 01-6.86-1.729c-2.036-1.171-3.704-2.941-4.8-5.094A17.62 17.62 0 010 17.484a17.323 17.323 0 011.792-8.247C2.904 7.09 4.584 5.33 6.628 4.167a13.51 13.51 0 016.808-1.73 14.71 14.71 0 014.845.786 11.49 11.49 0 013.882 2.21A10.722 10.722 0 0124.85 9a13.492 13.492 0 011.217 4.82z" fill="#6D3F8C"/><path d="M56.816 17.484c.102 3.33-.62 6.63-2.098 9.575-1.304 2.505-3.273 4.557-5.666 5.904a15.913 15.913 0 01-7.95 1.997 15.9 15.9 0 01-7.98-2.013c-2.382-1.36-4.342-3.416-5.644-5.92a19.936 19.936 0 01-2.097-9.543A20.063 20.063 0 0127.47 7.9c1.3-2.499 3.26-4.547 5.643-5.896A15.97 15.97 0 0141.102 0c2.767-.04 5.5.649 7.95 2.005 2.39 1.346 4.359 3.394 5.666 5.896a20.062 20.062 0 012.098 9.583z" fill="#6D3F8C"/><path d="M78.553 2.838v29.284h-6.3L62.205 16.737h-.164v15.385h-7.547V2.838h6.405l9.883 15.33H71V2.838h7.555z" fill="#6D3F8C"/><path d="M102.591 2.838v29.284h-6.293L86.242 16.737h-.164v15.385h-7.547V2.838h6.412l9.862 15.33h.216V2.838h7.57z" fill="#6D3F8C"/><path d="M102.568 32.122V2.838h20.044v6.407h-12.489v5.031h11.458v6.407h-11.458v5.032h12.436v6.407h-19.991z" fill="#6D3F8C"/><path d="M146.91 13.82h-7.659a5.71 5.71 0 00-.426-1.816 4.276 4.276 0 00-.948-1.407 4.09 4.09 0 00-1.493-.912 5.348 5.348 0 00-1.94-.322 5.249 5.249 0 00-3.21.967 5.948 5.948 0 00-1.986 2.79 12.606 12.606 0 00-.672 4.364c-.034 1.543.209 3.08.717 4.528a5.628 5.628 0 001.993 2.712 5.33 5.33 0 003.135.912 5.785 5.785 0 001.874-.283 4.291 4.291 0 001.441-.786 4.32 4.32 0 00.992-1.282 5.28 5.28 0 00.523-1.698l7.659.063a11.208 11.208 0 01-.993 3.782c-1.286 2.812-3.55 4.997-6.323 6.1a14.688 14.688 0 01-12.22-.739c-2.035-1.169-3.702-2.94-4.792-5.094a17.524 17.524 0 01-1.762-8.215 17.323 17.323 0 011.792-8.247c1.112-2.147 2.793-3.908 4.837-5.07a13.51 13.51 0 016.785-1.73 14.71 14.71 0 014.845.786 11.49 11.49 0 013.882 2.21A10.71 10.71 0 01145.648 9a13.473 13.473 0 011.262 4.82z" fill="#6D3F8C"/><path d="M136.959 9.245V2.838h24.164v6.407h-8.361v22.877h-7.465V9.245h-8.338zm34.593 22.877V2.838h12.003c1.88-.043 3.74.4 5.42 1.29a9.097 9.097 0 013.62 3.615 11.027 11.027 0 011.292 5.448 10.644 10.644 0 01-1.329 5.448 8.88 8.88 0 01-3.732 3.546 11.783 11.783 0 01-5.562 1.242h-7.166v-6.132h5.643a4.815 4.815 0 002.277-.495 3.483 3.483 0 001.456-1.407 4.42 4.42 0 00.507-2.162 4.32 4.32 0 00-.507-2.154 3.401 3.401 0 00-1.456-1.368 4.913 4.913 0 00-2.277-.48h-2.657v22.893h-7.532zm25.089 0V2.838h7.547v22.877h11.243v6.407h-18.79zm29.054 0h-8.152l9.182-29.284h10.317l9.181 29.284h-8.151l-6.077-21.226h-.224l-6.076 21.226zm-1.493-11.556h15.318v5.95h-15.348l.03-5.95zm49.336-6.746h-7.659a5.765 5.765 0 00-.426-1.816 4.293 4.293 0 00-.948-1.407 4.157 4.157 0 00-1.493-.912 5.35 5.35 0 00-1.941-.322 5.253 5.253 0 00-3.21.967 5.947 5.947 0 00-1.985 2.79 12.606 12.606 0 00-.672 4.364c-.04 1.53.193 3.056.687 4.496a5.58 5.58 0 001.993 2.713 5.331 5.331 0 003.135.912 5.785 5.785 0 001.874-.283 4.18 4.18 0 001.433-.787c.41-.354.75-.789 1-1.28a5.28 5.28 0 00.523-1.699l7.659.063a11.208 11.208 0 01-.993 3.781c-1.272 2.826-3.528 5.028-6.3 6.148a14.692 14.692 0 01-12.221-.74c-2.035-1.168-3.701-2.939-4.792-5.093a17.447 17.447 0 01-1.762-8.215 17.323 17.323 0 011.792-8.247c1.113-2.147 2.793-3.909 4.837-5.07a13.51 13.51 0 016.786-1.73 14.69 14.69 0 014.844.786c1.416.47 2.734 1.22 3.882 2.209a10.846 10.846 0 012.695 3.569 13.635 13.635 0 011.262 4.803zm3.411 18.302V2.838h20.036v6.407h-12.474v5.031h11.459v6.407h-11.459v5.032h12.437v6.407h-19.999z" fill="#6D3F8C"/><path d="M34.443 20.149l3.046 6.234v2.948a.617.617 0 00.161.422.558.558 0 00.399.175h6.106a.554.554 0 00.396-.177.614.614 0 00.164-.42v-2.948l3.06-6.234a.625.625 0 000-.495L41.61 5.385a.58.58 0 00-.163-.224.54.54 0 00-.512-.098.549.549 0 00-.228.15l-1.403 3.144-4.875 11.297a.6.6 0 00.015.495zm9.152 8.592H38.61v-1.91h4.986v1.91zM40.542 8.357v7.617a2.427 2.427 0 00-1.428 1.021 2.66 2.66 0 00-.422 1.762c.07.622.353 1.196.797 1.612a2.358 2.358 0 001.613.646c.595 0 1.169-.23 1.613-.646.444-.416.727-.99.797-1.612a2.66 2.66 0 00-.423-1.762 2.426 2.426 0 00-1.427-1.02V8.356l4.971 11.5-2.821 5.787h-5.42l-2.83-5.786 4.98-11.501zm1.866 10.11c0 .272-.076.538-.22.764a1.323 1.323 0 01-.586.506 1.245 1.245 0 01-.755.079 1.287 1.287 0 01-.669-.377 1.4 1.4 0 01-.357-.704 1.443 1.443 0 01.074-.795c.099-.251.266-.466.481-.617a1.26 1.26 0 01.726-.232c.346.002.677.147.922.405.244.258.382.606.384.97z" fill="#DFBE4F"/></g><defs><clipPath id="clip0"><path fill="#fff" d="M0 0h297v54H0z"/></clipPath></defs></svg>