<svg width="209" height="36" fill="none" xmlns="http://www.w3.org/2000/svg"><g clip-path="url(#clip0)"><path d="M6.53 30.98h-.655a2.097 2.097 0 00-.739-1.222 2.243 2.243 0 00-1.426-.493 2.28 2.28 0 00-1.23.352 2.51 2.51 0 00-.892 1.048 4.386 4.386 0 000 3.338c.191.427.5.79.891 1.048a2.24 2.24 0 001.232.352c.266.003.53-.042.78-.131a2.096 2.096 0 001.384-1.583h.655a2.814 2.814 0 01-.927 1.656 2.84 2.84 0 01-.85.493 2.92 2.92 0 01-1.047.178 2.893 2.893 0 01-1.573-.451 3.029 3.029 0 01-1.085-1.31 4.979 4.979 0 010-3.858 3.103 3.103 0 011.049-1.294 2.893 2.893 0 011.598-.45c.357-.004.712.057 1.048.177.31.112.598.279.85.493.491.428.819 1.013.927 1.656h.01zm9.193 1.336a4.46 4.46 0 01-.393 1.939c-.24.516-.617.957-1.09 1.273a3.06 3.06 0 01-3.197 0 3.102 3.102 0 01-1.085-1.273 4.979 4.979 0 010-3.858c.241-.517.62-.957 1.095-1.273a3.05 3.05 0 013.192 0c.472.318.849.758 1.09 1.274.27.602.402 1.257.388 1.918zm-.63 0a3.814 3.814 0 00-.324-1.64 2.443 2.443 0 00-.87-1.049 2.264 2.264 0 00-1.258-.362 2.24 2.24 0 00-1.252.362c-.385.26-.689.623-.876 1.048a3.8 3.8 0 00-.325 1.64 3.895 3.895 0 00.32 1.641c.188.425.491.788.875 1.048.373.246.812.374 1.258.367a2.27 2.27 0 001.258-.361c.385-.26.689-.623.875-1.049a3.8 3.8 0 00.325-1.645h-.005zm9.587-3.564v7.128h-.634l-4.193-5.97H19.8v5.97h-.67v-7.128h.629l4.224 5.975h.057v-5.975h.64zm7.589 1.782a1.31 1.31 0 00-.524-.949 1.929 1.929 0 00-1.175-.351c-.3-.006-.599.053-.875.173a1.373 1.373 0 00-.592.472c-.144.197-.22.436-.215.68a1.03 1.03 0 00.12.499c.085.152.201.285.341.388.143.104.298.192.462.262.17.07.346.13.524.178l.75.215c.233.064.463.144.686.24.222.097.431.22.623.368.186.142.341.32.456.524.118.234.176.493.168.755.01.371-.095.737-.299 1.048-.21.315-.504.566-.849.723a3.458 3.458 0 01-2.589 0 2.038 2.038 0 01-.864-.645 1.875 1.875 0 01-.346-.99h.67c.014.261.111.511.278.712.168.203.387.357.634.446.279.104.574.155.87.152.325.007.648-.054.949-.178.262-.112.488-.294.655-.524.158-.218.24-.48.236-.75a.996.996 0 00-.184-.608 1.572 1.572 0 00-.524-.414 4.785 4.785 0 00-.78-.293l-.855-.252a3.207 3.207 0 01-1.3-.692 1.483 1.483 0 01-.46-1.126 1.707 1.707 0 01.303-1.012 2.14 2.14 0 01.839-.687 2.783 2.783 0 011.184-.24 2.68 2.68 0 011.174.24c.326.15.607.382.818.671.199.286.31.623.32.97l-.63-.005zm3.689-1.184v-.598h5.168v.597h-2.259v6.53h-.65v-6.53h-2.259zm8.454 6.53v-7.128h2.3c.44-.015.875.078 1.269.272.322.171.587.434.76.755.176.342.264.722.257 1.106.005.377-.083.75-.257 1.085a1.8 1.8 0 01-.77.744c-.392.19-.824.282-1.258.267h-1.95v-.576h1.944c.32.01.638-.055.928-.189a1.19 1.19 0 00.524-.524 1.7 1.7 0 00.184-.807 1.77 1.77 0 00-.184-.818 1.284 1.284 0 00-.555-.524 2.048 2.048 0 00-.907-.194h-1.625v6.53h-.66zm3.144-3.213l1.75 3.212h-.749l-1.734-3.212h.733zm9.617-3.915h.65v4.717c.007.456-.111.905-.34 1.3-.23.379-.558.69-.949.9a3.196 3.196 0 01-2.82 0 2.401 2.401 0 01-.953-.9 2.484 2.484 0 01-.341-1.295v-4.717h.65v4.675c-.007.354.082.703.257 1.011.172.285.418.517.712.671a2.411 2.411 0 002.165 0c.3-.161.548-.402.718-.697.17-.31.257-.658.252-1.011v-4.654zm5.017 0v7.128h-.65v-7.128h.65zm9.27 0v7.128h-.634l-4.193-5.97h-.073v5.97h-.655v-7.128h.655l4.193 5.975h.057v-5.975h.65zm5.807 7.128h-2.096v-7.128h2.212a3.428 3.428 0 011.75.424c.487.285.877.71 1.116 1.222a4.865 4.865 0 010 3.83 2.81 2.81 0 01-1.147 1.232 3.668 3.668 0 01-1.835.42zm-1.441-.582h1.4a3.018 3.018 0 001.54-.362c.412-.242.737-.61.928-1.048a3.73 3.73 0 00.309-1.599 3.831 3.831 0 00-.304-1.572 2.211 2.211 0 00-.89-1.048 2.793 2.793 0 00-1.458-.356h-1.525v5.985zm14.051-2.982a4.386 4.386 0 01-.398 1.939 3.066 3.066 0 01-1.09 1.273 3.05 3.05 0 01-3.192 0 3.03 3.03 0 01-1.09-1.273 4.922 4.922 0 010-3.879 3.092 3.092 0 011.09-1.273 3.05 3.05 0 013.191 0c.477.322.855.77 1.09 1.294a4.38 4.38 0 01.399 1.919zm-.634 0a3.816 3.816 0 00-.32-1.64 2.453 2.453 0 00-.875-1.049 2.359 2.359 0 00-2.51 0 2.49 2.49 0 00-.876 1.048 4.371 4.371 0 000 3.281c.186.424.487.788.87 1.048a2.352 2.352 0 002.516 0 2.42 2.42 0 00.875-1.048 3.817 3.817 0 00.32-1.64zm14.161-3.564v7.128h-.634l-4.193-5.97h-.047v5.97h-.65v-7.128h.629l4.214 5.975h.057v-5.975h.624zm9.564 3.564a4.38 4.38 0 01-.398 1.939 3.1 3.1 0 01-1.09 1.273 3.048 3.048 0 01-3.192 0 3.033 3.033 0 01-1.09-1.273 4.934 4.934 0 010-3.879 3.06 3.06 0 011.09-1.273 3.052 3.052 0 013.192 0c.475.324.852.771 1.09 1.294.276.602.412 1.257.398 1.919zm-.634 0a3.885 3.885 0 00-.319-1.64 2.495 2.495 0 00-.876-1.049 2.359 2.359 0 00-2.51 0 2.485 2.485 0 00-.875 1.048 4.371 4.371 0 000 3.281c.184.425.486.79.87 1.048a2.35 2.35 0 002.515 0c.387-.258.691-.622.876-1.048a3.822 3.822 0 00.319-1.64zm3.706-3.564l2.227 6.289h.063l2.227-6.29h.682l-2.589 7.128h-.697l-2.595-7.127h.682zm7.646 7.128H123l2.594-7.128h.713l2.594 7.128h-.681l-2.238-6.29h-.047l-2.249 6.29zm.488-2.731h3.537v.582h-3.537v-.582zm11.624-2.615a1.308 1.308 0 00-.524-.949 1.92 1.92 0 00-1.174-.351 2.095 2.095 0 00-.875.173 1.444 1.444 0 00-.593.472 1.162 1.162 0 00-.214.68.964.964 0 00.125.499c.081.143.192.266.325.361.145.103.299.191.462.262.17.07.345.13.524.179l.749.215c.233.063.46.144.681.24.223.096.433.219.624.367.186.143.341.321.456.525.121.236.181.5.173.765a1.87 1.87 0 01-.294 1.048 2.062 2.062 0 01-.849.723 3.469 3.469 0 01-2.594 0 2.021 2.021 0 01-.838-.67 1.863 1.863 0 01-.346-.991h.671c.013.261.11.511.277.713.168.202.387.356.634.445.279.104.574.155.87.152.326.006.648-.054.949-.178a1.57 1.57 0 00.65-.524 1.21 1.21 0 00.241-.75.962.962 0 00-.189-.608 1.504 1.504 0 00-.524-.414 4.704 4.704 0 00-.775-.293l-.855-.252a3.176 3.176 0 01-1.299-.691 1.482 1.482 0 01-.467-1.127 1.716 1.716 0 01.309-1.012 2.1 2.1 0 01.834-.686c.374-.166.78-.248 1.189-.241a2.68 2.68 0 011.174.24c.325.15.605.381.813.671.2.285.313.622.325.97l-.645.037zm11.404-1.782h.65v5.141a2.43 2.43 0 01-.251 1.164 1.573 1.573 0 01-.682.691c-.307.158-.65.238-.995.231a2.291 2.291 0 01-.991-.204 1.651 1.651 0 01-.686-.582 1.568 1.568 0 01-.247-.87h.65a.957.957 0 00.168.556c.114.165.272.296.456.377.207.095.432.142.66.136.232.005.461-.05.666-.157a1.15 1.15 0 00.45-.493c.118-.267.173-.557.163-.849l-.011-5.141zm10.21 3.564a4.465 4.465 0 01-.393 1.939 3.07 3.07 0 01-1.09 1.273 3.054 3.054 0 01-3.192 0 3.026 3.026 0 01-1.09-1.273 4.916 4.916 0 010-3.879 3.054 3.054 0 011.09-1.273 3.05 3.05 0 013.192 0 3.1 3.1 0 011.09 1.294c.271.603.405 1.258.393 1.919zm-.629 0a3.825 3.825 0 00-.325-1.64 2.449 2.449 0 00-.87-1.049 2.359 2.359 0 00-2.511 0 2.5 2.5 0 00-.875 1.048 4.371 4.371 0 000 3.281c.184.425.486.79.87 1.048a2.356 2.356 0 002.516 0c.385-.26.688-.623.875-1.048a3.808 3.808 0 00.32-1.64zm4.03 3.564v-7.128h2.301c.439-.015.874.078 1.268.272.326.17.595.432.77.755.177.342.265.722.257 1.106.009.382-.08.761-.257 1.1-.174.321-.443.58-.77.745-.391.19-.823.282-1.258.267h-1.96v-.592h1.939c.32.01.638-.054.928-.189.238-.108.434-.292.555-.524a1.7 1.7 0 00.184-.807 1.769 1.769 0 00-.184-.818 1.279 1.279 0 00-.555-.524 2.047 2.047 0 00-.933-.194h-1.635v6.53h-.65zm3.145-3.213l1.75 3.212h-.749l-1.74-3.212h.739zm10.413-3.915v7.128h-.629l-4.192-5.97h-.058v5.97h-.65v-7.128h.629l4.229 5.975h.053v-5.975h.618zm3.732 7.128h-.682l2.589-7.128h.697l2.595 7.128h-.682l-2.237-6.29h-.048l-2.232 6.29zm.487-2.731h3.538v.582h-3.538v-.582zm9.843 2.731h-2.097v-7.128h2.212a3.426 3.426 0 011.751.424c.488.286.878.711 1.121 1.222a4.852 4.852 0 010 3.83c-.255.52-.665.949-1.174 1.227a3.668 3.668 0 01-1.813.425zm-1.436-.582h1.399a3.017 3.017 0 001.541-.362c.412-.242.737-.61.928-1.048a4.3 4.3 0 000-3.187 2.211 2.211 0 00-.891-1.048 2.793 2.793 0 00-1.457-.356h-1.52v6zm7.882.582h-.681l2.589-7.128h.697l2.594 7.128h-.681l-2.238-6.29h-.047l-2.233 6.29zm.487-2.731h3.538v.582h-3.538v-.582zm11.651-2.615a1.307 1.307 0 00-.524-.949 1.913 1.913 0 00-1.169-.351 2.094 2.094 0 00-.88.173c-.236.1-.439.263-.587.472-.144.197-.22.436-.215.68a1.02 1.02 0 00.12.499c.081.144.194.268.331.361.143.105.297.193.461.262.171.07.346.13.524.179l.749.215c.233.063.461.143.682.24.224.096.435.219.629.367.185.143.34.321.456.525.118.237.177.5.172.765.01.371-.094.737-.298 1.048a2.069 2.069 0 01-.849.723 3.458 3.458 0 01-2.589 0 2.038 2.038 0 01-.886-.629 1.88 1.88 0 01-.346-.99h.671c.013.261.111.511.278.712.167.203.386.357.634.446.278.104.573.156.87.152a2.35 2.35 0 00.948-.178 1.58 1.58 0 00.656-.524c.158-.218.24-.48.235-.75a.962.962 0 00-.188-.608 1.522 1.522 0 00-.524-.414 4.535 4.535 0 00-.776-.293l-.854-.252a3.21 3.21 0 01-1.3-.692 1.494 1.494 0 01-.352-.514 1.494 1.494 0 01-.109-.612 1.708 1.708 0 01.304-1.012 2.09 2.09 0 01.838-.687 2.787 2.787 0 011.185-.24c.404-.01.806.073 1.174.24.324.15.604.381.812.671.203.284.316.622.325.97l-.608-.005zM18.301 9.214h-5.377a3.668 3.668 0 00-.298-1.211 2.934 2.934 0 00-.666-.938 2.903 2.903 0 00-1.048-.608 3.936 3.936 0 00-1.363-.215 3.826 3.826 0 00-2.212.645 3.978 3.978 0 00-1.394 1.86 8.019 8.019 0 00-.471 2.909 8.166 8.166 0 00.46 3.019 3.742 3.742 0 001.405 1.787c.657.418 1.424.63 2.202.608.445.006.89-.058 1.315-.189a3.06 3.06 0 001.012-.524c.291-.24.533-.533.712-.865.189-.353.313-.736.367-1.132l5.377.042a7.18 7.18 0 01-.697 2.521 8.155 8.155 0 01-1.698 2.364 8.264 8.264 0 01-2.725 1.734 9.91 9.91 0 01-3.768.66 9.917 9.917 0 01-4.817-1.152 8.386 8.386 0 01-3.37-3.396A11.252 11.252 0 010 11.656c-.063-1.91.37-3.805 1.258-5.498a8.433 8.433 0 013.396-3.38 9.884 9.884 0 014.78-1.153 10.818 10.818 0 013.401.524 8.186 8.186 0 012.725 1.473A7.196 7.196 0 0117.447 6c.49 1.005.78 2.096.854 3.213z" fill="#fff"/><path d="M39.889 11.656c.072 2.22-.436 4.42-1.473 6.383a9.811 9.811 0 01-3.978 3.936 11.633 11.633 0 01-5.581 1.331 11.63 11.63 0 01-5.603-1.341 9.9 9.9 0 01-3.962-3.947 12.735 12.735 0 01-1.473-6.362 12.815 12.815 0 011.468-6.389 9.827 9.827 0 013.962-3.93A11.687 11.687 0 0128.857 0a11.65 11.65 0 015.581 1.336 9.832 9.832 0 013.978 3.931 12.814 12.814 0 011.473 6.389z" fill="#fff"/><path d="M55.15 1.892v19.523h-4.423l-7.054-10.257h-.115v10.257h-5.299V1.892h4.497l6.939 10.22h.152V1.892h5.304z" fill="#fff"/><path d="M72.026 1.892v19.523h-4.418l-7.06-10.257h-.115v10.257h-5.298V1.892h4.502l6.923 10.22h.152V1.892h5.314z" fill="#fff"/><path d="M72.01 21.415V1.892h14.072v4.271h-8.768v3.355h8.045v4.27h-8.045v3.355h8.732v4.271H72.01z" fill="#fff"/><path d="M103.142 9.214h-5.377a3.668 3.668 0 00-.3-1.211 2.855 2.855 0 00-.665-.938 2.903 2.903 0 00-1.048-.608 3.937 3.937 0 00-1.362-.215c-.8-.026-1.589.2-2.254.645a3.978 3.978 0 00-1.394 1.86 8.02 8.02 0 00-.472 2.909 8.166 8.166 0 00.503 3.019 3.773 3.773 0 001.4 1.808c.656.418 1.423.63 2.2.608.447.006.89-.058 1.316-.189a3.08 3.08 0 001.012-.524c.285-.238.521-.528.697-.854.188-.353.312-.736.367-1.132l5.377.042a7.173 7.173 0 01-.697 2.52 8.108 8.108 0 01-4.44 4.067 10.813 10.813 0 01-8.579-.492 8.333 8.333 0 01-3.364-3.396 11.193 11.193 0 01-1.237-5.477c-.063-1.91.37-3.805 1.258-5.498a8.433 8.433 0 013.396-3.38 9.885 9.885 0 014.764-1.153 10.816 10.816 0 013.401.524 8.18 8.18 0 012.725 1.472 7.19 7.19 0 011.887 2.38 8.64 8.64 0 01.886 3.213z" fill="#fff"/><path d="M96.156 6.163V1.892h16.964v4.271h-5.869v15.252h-5.241V6.162h-5.855zm24.286 15.252V1.892h8.428a8.079 8.079 0 013.804.86 6.229 6.229 0 012.542 2.41 7.046 7.046 0 01.907 3.632 6.808 6.808 0 01-.933 3.632 6.11 6.11 0 01-2.62 2.364 8.64 8.64 0 01-3.905.828h-5.031V11.53h3.962a3.53 3.53 0 001.598-.33 2.39 2.39 0 001.022-.938c.246-.44.369-.938.357-1.441a2.765 2.765 0 00-.357-1.437 2.341 2.341 0 00-1.022-.911 3.603 3.603 0 00-1.598-.32h-1.866v15.262h-5.288zm17.615 0V1.892h5.298v15.251h7.893v4.271h-13.191zm20.398 0h-5.724l6.447-19.523h7.243l6.446 19.523h-5.723l-4.266-14.151h-.157l-4.266 14.15zm-1.049-7.705h10.755v3.968h-10.776l.021-3.968zm34.638-4.496h-5.378a3.647 3.647 0 00-.298-1.211 2.86 2.86 0 00-.666-.938 2.942 2.942 0 00-1.048-.608 3.935 3.935 0 00-1.363-.215c-.8-.026-1.588.2-2.253.645a3.975 3.975 0 00-1.394 1.86 8.005 8.005 0 00-.472 2.909 8.162 8.162 0 00.482 2.998 3.743 3.743 0 001.399 1.808c.657.418 1.424.63 2.202.608a4.28 4.28 0 001.315-.189 2.972 2.972 0 001.006-.524c.288-.236.527-.526.703-.854.188-.353.312-.736.366-1.132l5.378.042a7.194 7.194 0 01-.697 2.52 8.109 8.109 0 01-4.424 4.099 10.81 10.81 0 01-8.579-.493 8.336 8.336 0 01-3.365-3.396 11.142 11.142 0 01-1.237-5.477 11.073 11.073 0 011.258-5.497 8.43 8.43 0 013.396-3.38 9.886 9.886 0 014.764-1.154 10.82 10.82 0 013.402.524 8.18 8.18 0 012.725 1.473 7.278 7.278 0 011.892 2.38 8.75 8.75 0 01.886 3.202zm2.395 12.201V1.892h14.067v4.271h-8.758v3.355h8.045v4.27h-8.045v3.355h8.731v4.271h-14.04z" fill="#fff"/><path d="M24.182 13.432l2.138 4.157v1.965a.394.394 0 00.393.398H31a.398.398 0 00.393-.398v-1.965l2.15-4.156a.398.398 0 000-.33l-4.33-9.513a.388.388 0 00-.634-.115l-.985 2.096-3.423 7.531a.384.384 0 00.01.33zm6.425 5.729h-3.5v-1.274h3.5v1.274zM28.464 5.57v5.079a1.703 1.703 0 10.786 0V5.57l3.49 7.668-1.98 3.857h-3.806l-1.986-3.857 3.496-7.668zm1.31 6.74a.917.917 0 11-1.834 0 .917.917 0 011.834 0z" fill="#6D3F8C"/></g><defs><clipPath id="clip0"><path fill="#fff" d="M0 0h208.516v36H0z"/></clipPath></defs></svg>