<svg width="297" height="54" viewBox="0 0 297 54" fill="none" xmlns="http://www.w3.org/2000/svg">
<g clip-path="url(#clip0)">
<path d="M9.30122 46.4688H8.3681C8.2315 45.7474 7.85904 45.0992 7.31554 44.6371C7.04323 44.3992 6.73211 44.2154 6.39736 44.0947C6.0406 43.9602 5.66397 43.8937 5.28508 43.8981C4.66455 43.8936 4.05577 44.0763 3.53082 44.4248C2.97704 44.8143 2.53752 45.3588 2.26178 45.9971C1.63505 47.6011 1.63505 49.4008 2.26178 51.0048C2.53407 51.6454 2.97433 52.1909 3.53082 52.5771C4.05436 52.9289 4.66409 53.112 5.28508 53.1038C5.66397 53.1083 6.0406 53.0417 6.39736 52.9073C7.06466 52.6692 7.63051 52.1902 7.99485 51.5551C8.17506 51.2401 8.30139 50.8942 8.3681 50.5331H9.30122C9.14725 51.4974 8.68024 52.3754 7.97992 53.0173C7.62059 53.3357 7.21138 53.5858 6.7706 53.7563C6.2928 53.9414 5.78666 54.032 5.27762 54.0236C4.48491 54.0298 3.70734 53.7951 3.03813 53.3475C2.35538 52.8613 1.81915 52.1793 1.49289 51.3822C1.12744 50.4662 0.939209 49.4827 0.939209 48.4892C0.939209 47.4957 1.12744 46.5121 1.49289 45.5962C1.81286 44.8175 2.32919 44.146 2.98588 43.6544C3.66576 43.1995 4.45732 42.9645 5.26269 42.9783C5.77143 42.9739 6.27691 43.0644 6.75567 43.2456C7.19779 43.4131 7.60749 43.6635 7.96499 43.9846C8.66531 44.6265 9.13232 45.5046 9.28629 46.4688H9.30122Z" fill="#6D3F8C"/>
<path d="M22.3948 48.4734C22.4173 49.4749 22.2259 50.469 21.8349 51.3822C21.4936 52.1569 20.9564 52.8178 20.2822 53.2925C19.5969 53.7345 18.809 53.9683 18.0054 53.9683C17.2018 53.9683 16.4138 53.7345 15.7286 53.2925C15.0571 52.8167 14.5226 52.1559 14.1833 51.3822C13.8179 50.4662 13.6296 49.4827 13.6296 48.4892C13.6296 47.4957 13.8179 46.5121 14.1833 45.5962C14.527 44.8207 15.0668 44.1597 15.7435 43.6859C16.4274 43.2437 17.2141 43.0097 18.0166 43.0097C18.819 43.0097 19.6058 43.2437 20.2896 43.6859C20.9618 44.1629 21.4985 44.8232 21.8423 45.5962C22.2265 46.5004 22.4152 47.4831 22.3948 48.4734ZM21.499 48.4734C21.5194 47.6273 21.3613 46.7869 21.0361 46.0128C20.773 45.3756 20.3433 44.8303 19.797 44.4405C19.2635 44.0779 18.6403 43.8892 18.0054 43.8981C17.3727 43.888 16.7515 44.0768 16.2213 44.4405C15.6728 44.8298 15.2404 45.375 14.9746 46.0128C14.6487 46.7867 14.4906 47.6272 14.5118 48.4734C14.4927 49.3187 14.648 50.1582 14.9671 50.9341C15.2344 51.571 15.6664 52.1158 16.2138 52.5063C16.7451 52.8748 17.3693 53.0665 18.0054 53.0566C18.6403 53.0655 19.2635 52.8768 19.797 52.5142C20.3455 52.125 20.7778 51.5797 21.0436 50.9419C21.3698 50.1654 21.5279 49.3222 21.5064 48.4734H21.499Z" fill="#6D3F8C"/>
<path d="M35.1523 43.1277V53.8192H34.2491L28.2771 44.8651H28.2025V53.8192H27.2469V43.1277H28.1427L34.1595 52.0897H34.2416V43.1277H35.1523Z" fill="#6D3F8C"/>
<path d="M45.9616 45.8006C45.9407 45.521 45.8633 45.2494 45.7346 45.004C45.6058 44.7586 45.4287 44.545 45.2151 44.3776C44.7269 44.0153 44.1399 43.8304 43.543 43.8509C43.1145 43.8422 42.6894 43.9307 42.2963 44.1104C41.9577 44.2583 41.6654 44.5034 41.4528 44.8179C41.2477 45.1143 41.1402 45.4732 41.1467 45.8399C41.1425 46.1002 41.2016 46.3573 41.3184 46.5867C41.4384 46.8152 41.6039 47.0137 41.8036 47.1684C42.0075 47.3257 42.2279 47.4576 42.4605 47.5615C42.7039 47.6667 42.9532 47.7559 43.207 47.8288L44.2745 48.1511C44.6082 48.247 44.935 48.3679 45.2524 48.5127C45.5688 48.6572 45.8672 48.842 46.1408 49.063C46.4052 49.2765 46.6261 49.5438 46.7902 49.8492C46.9581 50.1997 47.0402 50.5888 47.0291 50.9812C47.0423 51.5387 46.8938 52.0871 46.6036 52.5535C46.3044 53.0268 45.8855 53.4025 45.3943 53.6384C44.2114 54.1411 42.8895 54.1411 41.7066 53.6384C41.221 53.4384 40.7956 53.1044 40.4749 52.6714C40.1798 52.2356 40.0089 51.7202 39.9822 51.1856H40.9377C40.9569 51.5776 41.0957 51.9525 41.3333 52.2548C41.5721 52.5587 41.8841 52.7895 42.2366 52.923C42.6329 53.0782 43.0529 53.1555 43.4758 53.151C43.9388 53.1609 44.3989 53.0699 44.8269 52.8837C45.1998 52.7155 45.5224 52.4438 45.76 52.0975C45.9851 51.7712 46.103 51.3766 46.096 50.9734C46.1057 50.6475 46.014 50.3272 45.8347 50.0614C45.631 49.8005 45.3764 49.5887 45.0882 49.4404C44.7303 49.2598 44.3582 49.1125 43.9759 49.0002L42.7591 48.6228C42.074 48.4328 41.4402 48.0775 40.9078 47.5851C40.691 47.3684 40.5203 47.1056 40.4071 46.8143C40.2939 46.5229 40.2406 46.2095 40.2509 45.8949C40.2394 45.3537 40.391 44.8225 40.6839 44.3776C40.9909 43.9316 41.4024 43.5768 41.8783 43.3478C42.4087 43.0985 42.9846 42.9751 43.5653 42.9862C44.1415 42.9724 44.7131 43.096 45.2375 43.3478C45.701 43.5729 46.1019 43.9193 46.402 44.3541C46.6853 44.7817 46.8435 45.2872 46.8574 45.8084L45.9616 45.8006Z" fill="#6D3F8C"/>
<path d="M51.2169 44.0239V43.1277H58.5774V44.0239H55.36V53.8192H54.4343V44.0239H51.2169Z" fill="#6D3F8C"/>
<path d="M63.2578 53.8192V43.1277H66.5349C67.1599 43.1047 67.7806 43.2451 68.3414 43.5365C68.8006 43.7928 69.1773 44.1867 69.4238 44.6685C69.6748 45.1808 69.8005 45.7509 69.7896 46.3273C69.7978 46.8933 69.6721 47.4525 69.4238 47.9546C69.1747 48.4358 68.7918 48.8253 68.3265 49.0709C67.7692 49.3561 67.1542 49.4937 66.5349 49.4718H63.758V48.6071H66.5275C66.9828 48.6221 67.4351 48.5252 67.8487 48.3241C68.1707 48.1524 68.4322 47.877 68.5952 47.5379C68.7758 47.1632 68.8656 46.7473 68.8565 46.3273C68.8638 45.9024 68.7742 45.4818 68.5952 45.1009C68.4133 44.7604 68.1373 44.4862 67.804 44.3147C67.4002 44.1152 66.9584 44.0157 66.5125 44.0239H64.1984V53.8192H63.2578ZM67.7368 49.0002L70.2301 53.8192H69.1626L66.6917 49.0002H67.7368Z" fill="#6D3F8C"/>
<path d="M81.4349 43.1277H82.3606V50.203C82.3693 50.8871 82.2016 51.5609 81.8754 52.1526C81.5473 52.7219 81.0808 53.1887 80.5242 53.5047C79.8993 53.8281 79.2124 53.9962 78.5161 53.9962C77.8199 53.9962 77.133 53.8281 76.5081 53.5047C75.9447 53.1957 75.4743 52.7275 75.1495 52.1526C74.8221 51.5643 74.6542 50.8926 74.6642 50.2108V43.1355H75.5899V50.1479C75.5805 50.6791 75.7068 51.2031 75.9557 51.6652C76.2007 52.0917 76.5518 52.4397 76.9709 52.6714C77.4492 52.9245 77.9771 53.0563 78.5124 53.0563C79.0477 53.0563 79.5756 52.9245 80.0539 52.6714C80.48 52.4291 80.834 52.0672 81.0766 51.6259C81.3198 51.1618 81.4434 50.6386 81.4349 50.1086V43.1277Z" fill="#6D3F8C"/>
<path d="M88.579 43.1277V53.8192H87.6533V43.1277H88.579Z" fill="#6D3F8C"/>
<path d="M101.784 43.1277V53.8192H100.881L94.9092 44.8651H94.8047V53.8192H93.8716V43.1277H94.8047L100.777 52.0897H100.859V43.1277H101.784Z" fill="#6D3F8C"/>
<path d="M110.056 53.8192H107.07V43.1277H110.22C111.09 43.1017 111.951 43.3215 112.713 43.7644C113.407 44.1911 113.962 44.83 114.303 45.5962C114.673 46.5041 114.863 47.4817 114.863 48.4695C114.863 49.4573 114.673 50.4349 114.303 51.3428C113.95 52.1202 113.38 52.765 112.668 53.1903C111.864 53.6356 110.964 53.8523 110.056 53.8192ZM108.003 52.9466H109.996C110.76 52.9745 111.518 52.7873 112.191 52.4041C112.778 52.0402 113.24 51.4898 113.512 50.8319C113.824 50.0765 113.975 49.2578 113.952 48.4341C113.967 47.6246 113.82 46.8209 113.519 46.0757C113.266 45.4229 112.821 44.8721 112.25 44.5034C111.618 44.1293 110.9 43.9445 110.175 43.9688H108.003V52.9466Z" fill="#6D3F8C"/>
<path d="M128.016 48.4734C128.04 49.4759 127.846 50.4708 127.449 51.3822C127.11 52.1585 126.572 52.82 125.896 53.2925C125.212 53.7346 124.426 53.9687 123.623 53.9687C122.821 53.9687 122.034 53.7346 121.35 53.2925C120.672 52.8222 120.134 52.1601 119.797 51.3822C119.423 50.463 119.23 49.4735 119.23 48.4734C119.23 47.4734 119.423 46.4838 119.797 45.5647C120.138 44.7897 120.676 44.1288 121.35 43.6544C122.034 43.2123 122.821 42.9782 123.623 42.9782C124.426 42.9782 125.212 43.2123 125.896 43.6544C126.575 44.1373 127.112 44.8097 127.449 45.5962C127.842 46.4979 128.035 47.4816 128.016 48.4734ZM127.113 48.4734C127.136 47.6279 126.98 46.7875 126.658 46.0128C126.392 45.375 125.959 44.8298 125.411 44.4405C124.875 44.086 124.256 43.8979 123.623 43.8979C122.991 43.8979 122.371 44.086 121.835 44.4405C121.289 44.832 120.857 45.3766 120.589 46.0128C119.982 47.591 119.982 49.3559 120.589 50.9341C120.853 51.5704 121.283 52.1153 121.828 52.5063C122.364 52.8634 122.985 53.0529 123.619 53.0529C124.254 53.0529 124.875 52.8634 125.411 52.5063C125.961 52.1194 126.394 51.5735 126.658 50.9341C126.98 50.1594 127.136 49.319 127.113 48.4734Z" fill="#6D3F8C"/>
<path d="M147.283 43.1277V53.8192H146.38L140.408 44.8651H140.341V53.8192H139.415V43.1277H140.311L146.313 52.0897H146.395V43.1277H147.283Z" fill="#6D3F8C"/>
<path d="M160.907 48.4734C160.93 49.4759 160.736 50.4708 160.339 51.3822C159.998 52.1569 159.461 52.8178 158.787 53.2925C158.103 53.7346 157.316 53.9687 156.514 53.9687C155.711 53.9687 154.924 53.7346 154.24 53.2925C153.563 52.8222 153.024 52.1601 152.688 51.3822C152.314 50.463 152.121 49.4735 152.121 48.4734C152.121 47.4734 152.314 46.4838 152.688 45.5647C153.026 44.7882 153.564 44.1266 154.24 43.6544C154.924 43.2123 155.711 42.9782 156.514 42.9782C157.316 42.9782 158.103 43.2123 158.787 43.6544C159.463 44.1401 160 44.8116 160.339 45.5962C160.732 46.4979 160.926 47.4816 160.907 48.4734ZM160.003 48.4734C160.022 47.6282 159.867 46.7886 159.548 46.0128C159.28 45.3766 158.848 44.832 158.301 44.4405C157.766 44.086 157.146 43.8979 156.514 43.8979C155.881 43.8979 155.261 44.086 154.726 44.4405C154.179 44.832 153.747 45.3766 153.479 46.0128C152.872 47.591 152.872 49.3559 153.479 50.9341C153.741 51.572 154.171 52.1176 154.718 52.5063C155.254 52.8634 155.876 53.0529 156.51 53.0529C157.144 53.0529 157.765 52.8634 158.301 52.5063C158.852 52.1194 159.285 51.5735 159.548 50.9341C159.871 50.1594 160.026 49.319 160.003 48.4734Z" fill="#6D3F8C"/>
<path d="M165.281 43.1277L168.454 52.5614H168.543L171.716 43.1277H172.686L168.999 53.8192H168.006L164.311 43.1277H165.281Z" fill="#6D3F8C"/>
<path d="M176.172 53.8192H175.195L178.89 43.1277H179.905L183.6 53.8192H182.63L179.442 44.3855H179.375L176.172 53.8192ZM176.867 49.7234H181.906V50.596H176.867V49.7234Z" fill="#6D3F8C"/>
<path d="M193.424 45.8006C193.405 45.5207 193.328 45.2485 193.199 45.0029C193.07 44.7572 192.892 44.5439 192.677 44.3776C192.19 44.0143 191.602 43.8293 191.005 43.8509C190.577 43.8422 190.152 43.9307 189.759 44.1104C189.423 44.2628 189.131 44.5071 188.915 44.8179C188.713 45.1161 188.606 45.4738 188.609 45.8399C188.604 46.1013 188.666 46.3594 188.788 46.5867C188.903 46.8008 189.061 46.9859 189.251 47.1291C189.457 47.2832 189.677 47.4149 189.908 47.5222C190.151 47.6271 190.401 47.7163 190.654 47.7895L191.722 48.1118C192.053 48.2078 192.378 48.3286 192.692 48.4734C193.01 48.6161 193.308 48.801 193.581 49.0237C193.845 49.2371 194.066 49.5045 194.23 49.8099C194.403 50.1644 194.488 50.5593 194.477 50.9576C194.489 51.5138 194.343 52.0612 194.058 52.5299C193.758 53.0015 193.339 53.3768 192.849 53.6148C191.664 54.118 190.339 54.118 189.154 53.6148C188.677 53.3988 188.264 53.0511 187.96 52.6085C187.665 52.1727 187.494 51.6573 187.467 51.1227H188.422C188.442 51.5147 188.58 51.8896 188.818 52.1919C189.057 52.4958 189.369 52.7266 189.721 52.8601C190.118 53.016 190.538 53.0933 190.961 53.0881C191.424 53.0974 191.883 53.0064 192.312 52.8208C192.682 52.6514 193.002 52.3798 193.237 52.0347C193.468 51.7107 193.588 51.315 193.581 50.9105C193.592 50.5832 193.497 50.2617 193.312 49.9985C193.11 49.7358 192.855 49.5237 192.566 49.3775C192.21 49.1969 191.841 49.0496 191.461 48.9373L190.244 48.5599C189.558 48.3715 188.924 48.0161 188.393 47.5222C188.175 47.3059 188.003 47.0434 187.889 46.7521C187.774 46.4607 187.719 46.1472 187.728 45.832C187.719 45.29 187.874 44.759 188.169 44.3148C188.472 43.8682 188.881 43.5132 189.356 43.2849C189.889 43.0365 190.467 42.9131 191.05 42.9233C191.626 42.9103 192.198 43.0339 192.722 43.2849C193.184 43.5087 193.583 43.8555 193.879 44.2912C194.165 44.7181 194.326 45.2236 194.342 45.7455L193.424 45.8006Z" fill="#6D3F8C"/>
<path d="M209.668 43.1277H210.593V50.8397C210.613 51.4437 210.49 52.0435 210.235 52.585C210.024 53.03 209.684 53.3933 209.265 53.6227C208.826 53.8594 208.339 53.9783 207.846 53.9686C207.36 53.9784 206.878 53.8736 206.435 53.662C206.039 53.4717 205.701 53.1697 205.457 52.7894C205.222 52.3999 205.1 51.9462 205.107 51.4844H206.032C206.028 51.7815 206.111 52.0728 206.271 52.3177C206.433 52.5664 206.658 52.7624 206.921 52.8837C207.215 53.0267 207.537 53.0966 207.861 53.0881C208.191 53.0949 208.517 53.0138 208.809 52.8523C209.088 52.6784 209.311 52.4212 209.451 52.1133C209.619 51.7126 209.698 51.2772 209.683 50.8397L209.668 43.1277Z" fill="#6D3F8C"/>
<path d="M224.209 48.4734C224.232 49.4749 224.041 50.469 223.65 51.3822C223.311 52.1585 222.773 52.82 222.097 53.2925C221.413 53.7346 220.626 53.9687 219.824 53.9687C219.021 53.9687 218.234 53.7346 217.551 53.2925C216.873 52.8222 216.335 52.1601 215.998 51.3822C215.624 50.463 215.431 49.4735 215.431 48.4734C215.431 47.4734 215.624 46.4838 215.998 45.5647C216.337 44.7882 216.874 44.1266 217.551 43.6544C218.234 43.2123 219.021 42.9782 219.824 42.9782C220.626 42.9782 221.413 43.2123 222.097 43.6544C222.775 44.1373 223.313 44.8097 223.65 45.5962C224.036 46.4997 224.227 47.4825 224.209 48.4734ZM223.314 48.4734C223.334 47.6273 223.176 46.7869 222.851 46.0128C222.588 45.3756 222.158 44.8302 221.612 44.4405C221.076 44.086 220.456 43.8979 219.824 43.8979C219.191 43.8979 218.571 44.086 218.036 44.4405C217.489 44.832 217.057 45.3766 216.789 46.0128C216.182 47.591 216.182 49.3559 216.789 50.9341C217.051 51.572 217.481 52.1176 218.028 52.5063C218.564 52.8634 219.186 53.0529 219.82 53.0529C220.454 53.0529 221.076 52.8634 221.612 52.5063C222.16 52.1171 222.592 51.5719 222.858 50.9341C223.181 50.1594 223.336 49.319 223.314 48.4734Z" fill="#6D3F8C"/>
<path d="M229.054 53.8192V43.1277H232.331C232.956 43.1047 233.577 43.2451 234.138 43.5365C234.602 43.7903 234.984 44.1845 235.235 44.6685C235.486 45.1808 235.612 45.7509 235.601 46.3273C235.613 46.9012 235.487 47.469 235.235 47.9782C234.986 48.4594 234.603 48.8489 234.138 49.0945C233.58 49.3797 232.965 49.5173 232.346 49.4954H229.554V48.6071H232.316C232.772 48.6238 233.224 48.5268 233.638 48.3241C233.977 48.1622 234.256 47.8855 234.429 47.5379C234.609 47.1632 234.699 46.7473 234.69 46.3273C234.697 45.9024 234.608 45.4818 234.429 45.1009C234.247 44.7604 233.971 44.4862 233.638 44.3147C233.222 44.1092 232.767 44.0095 232.309 44.0239H229.98V53.8192H229.054ZM233.533 49.0002L236.026 53.8192H234.959L232.48 49.0002H233.533Z" fill="#6D3F8C"/>
<path d="M248.366 43.1277V53.8192H247.47L241.498 44.8651H241.416V53.8192H240.49V43.1277H241.386L247.41 52.0897H247.485V43.1277H248.366Z" fill="#6D3F8C"/>
<path d="M253.681 53.8192H252.711L256.398 43.1277H257.391L261.086 53.8192H260.116L256.928 44.3855H256.861L253.681 53.8192ZM254.375 49.7234H259.414V50.596H254.375V49.7234Z" fill="#6D3F8C"/>
<path d="M268.394 53.8192H265.408V43.1277H268.559C269.429 43.1017 270.29 43.3215 271.052 43.7644C271.747 44.1922 272.304 44.8305 272.649 45.5962C273.019 46.5041 273.209 47.4817 273.209 48.4695C273.209 49.4573 273.019 50.4349 272.649 51.3428C272.285 52.123 271.701 52.7655 270.977 53.1824C270.183 53.6251 269.293 53.8444 268.394 53.8192ZM266.349 52.9466H268.342C269.106 52.9745 269.864 52.7873 270.537 52.4041C271.124 52.0402 271.586 51.4898 271.858 50.8319C272.44 49.2976 272.44 47.5863 271.858 46.0521C271.604 45.3993 271.16 44.8485 270.589 44.4798C269.956 44.1057 269.239 43.9209 268.514 43.9453H266.349V52.9466Z" fill="#6D3F8C"/>
<path d="M277.576 53.8192H276.606L280.293 43.1277H281.286L284.981 53.8192H284.011L280.823 44.3855H280.756L277.576 53.8192ZM278.27 49.7234H283.309V50.596H278.27V49.7234Z" fill="#6D3F8C"/>
<path d="M294.865 45.8006C294.845 45.5208 294.768 45.2488 294.639 45.0033C294.51 44.7577 294.333 44.5443 294.118 44.3776C293.633 44.0154 293.048 43.8304 292.454 43.8509C292.023 43.8411 291.595 43.9296 291.2 44.1104C290.864 44.2606 290.575 44.5055 290.364 44.8179C290.159 45.1143 290.051 45.4732 290.058 45.8399C290.053 46.1002 290.112 46.3573 290.229 46.5867C290.345 46.8029 290.506 46.9884 290.7 47.1291C290.903 47.2864 291.124 47.4183 291.356 47.5222C291.6 47.6273 291.849 47.7166 292.103 47.7895L293.17 48.1118C293.502 48.2065 293.826 48.3274 294.141 48.4734C294.46 48.616 294.761 48.801 295.037 49.0237C295.301 49.2371 295.522 49.5045 295.686 49.8099C295.855 50.1661 295.939 50.5598 295.932 50.9576C295.946 51.5151 295.797 52.0635 295.507 52.5299C295.206 53.0015 294.788 53.3768 294.298 53.6148C293.115 54.1175 291.793 54.1175 290.61 53.6148C290.116 53.4263 289.68 53.1003 289.348 52.6714C289.053 52.2356 288.882 51.7202 288.856 51.1856H289.811C289.83 51.5776 289.969 51.9525 290.207 52.2548C290.446 52.5587 290.758 52.7895 291.11 52.923C291.506 53.0789 291.926 53.1562 292.349 53.151C292.812 53.1609 293.272 53.0699 293.7 52.8837C294.073 52.7155 294.396 52.4438 294.634 52.0975C294.859 51.7712 294.976 51.3766 294.969 50.9734C294.98 50.6461 294.886 50.3246 294.701 50.0614C294.499 49.7987 294.244 49.5866 293.954 49.4404C293.6 49.2584 293.23 49.1111 292.849 49.0002L291.633 48.6228C290.948 48.4328 290.314 48.0775 289.781 47.5851C289.565 47.3684 289.394 47.1056 289.281 46.8143C289.167 46.5229 289.114 46.2095 289.124 45.8949C289.113 45.3537 289.265 44.8225 289.557 44.3776C289.863 43.93 290.275 43.5749 290.752 43.3478C291.282 43.0985 291.858 42.9751 292.439 42.9862C293.015 42.9724 293.587 43.096 294.111 43.3478C294.573 43.5716 294.972 43.9184 295.268 44.3541C295.557 44.7793 295.718 45.2858 295.731 45.8084L294.865 45.8006Z" fill="#6D3F8C"/>
<path d="M26.067 13.8204H18.408C18.3656 13.1939 18.2217 12.5797 17.9825 12.0044C17.7577 11.4741 17.4355 10.9958 17.0344 10.5972C16.6032 10.186 16.0945 9.87528 15.5414 9.68526C14.9175 9.45833 14.2605 9.34922 13.6006 9.36295C12.4811 9.33677 11.3812 9.6744 10.4504 10.3299C9.53934 11.0312 8.84791 12.0029 8.46469 13.1207C7.98673 14.5189 7.75894 15.9982 7.79284 17.4838C7.73946 19.0232 7.96233 20.5595 8.44976 22.0119C8.83655 23.1024 9.53568 24.0392 10.4504 24.6927C11.3852 25.3202 12.4774 25.6379 13.5856 25.6046C14.2204 25.6141 14.8527 25.5186 15.4593 25.3216C15.9821 25.1568 16.4708 24.8901 16.9001 24.5355C17.3152 24.1766 17.6601 23.736 17.9153 23.2383C18.1833 22.7092 18.3602 22.1343 18.4378 21.5403L26.0969 21.6032C25.9885 22.917 25.652 24.1987 25.104 25.3845C24.5062 26.7095 23.687 27.9104 22.6854 28.93C21.5666 30.0578 20.2475 30.9421 18.8036 31.5321C17.0926 32.2263 15.2695 32.5627 13.4363 32.5226C11.0475 32.5665 8.6871 31.9714 6.57606 30.7931C4.54027 29.622 2.87239 27.8519 1.7761 25.6989C0.533953 23.1628 -0.0773103 20.3363 -0.000552687 17.4838C-0.0898548 14.6181 0.527395 11.7769 1.79103 9.23716C2.90394 7.08992 4.58422 5.3286 6.62831 4.16656C8.7231 2.99537 11.0649 2.40046 13.4363 2.43705C15.0807 2.42515 16.7163 2.69055 18.2811 3.22319C19.6967 3.69266 21.0142 4.44244 22.1628 5.43224C23.2895 6.40707 24.2057 7.62385 24.8502 9.00132C25.5485 10.5095 25.9617 12.1462 26.067 13.8204Z" fill="#6D3F8C"/>
<path d="M56.8156 17.4838C56.9184 20.8132 56.1954 24.1134 54.7179 27.0589C53.4136 29.5644 51.4448 31.6159 49.052 32.9629C46.6016 34.3164 43.8686 35.0028 41.1019 34.9597C38.3237 35.0039 35.5796 34.3119 33.1218 32.9471C30.7396 31.5861 28.7802 29.5309 27.4784 27.0275C26.0033 24.0923 25.2803 20.8029 25.3807 17.4838C25.2767 14.1526 25.997 10.8502 27.4709 7.90071C28.7714 5.40226 30.7317 3.3543 33.1144 2.00465C35.5762 0.644543 38.3222 -0.0446417 41.1019 -6.69365e-06C43.8692 -0.040404 46.6022 0.648725 49.052 2.00465C51.4428 3.35101 53.411 5.39922 54.7179 7.90071C56.1944 10.8494 56.9173 14.1519 56.8156 17.4838Z" fill="#6D3F8C"/>
<path d="M78.5535 2.83798V32.1217H72.2531L62.2053 16.7369H62.0411V32.1217H54.494V2.83798H60.8989L70.7825 18.1677H70.999V2.83798H78.5535Z" fill="#6D3F8C"/>
<path d="M102.591 2.83798V32.1217H96.2977L86.2424 16.7369H86.0782V32.1217H78.5311V2.83798H84.9435L94.8047 18.1677H95.0212V2.83798H102.591Z" fill="#6D3F8C"/>
<path d="M102.568 32.1217V2.83798H122.612V9.24503H110.123V14.2763H121.581V20.6834H110.123V25.7147H122.559V32.1217H102.568Z" fill="#6D3F8C"/>
<path d="M146.91 13.8203H139.251C139.209 13.1939 139.065 12.5797 138.825 12.0044C138.603 11.4724 138.281 10.9937 137.877 10.5972C137.446 10.186 136.937 9.87526 136.384 9.68525C135.76 9.45832 135.103 9.34921 134.444 9.36293C133.304 9.32363 132.181 9.66183 131.234 10.3299C130.323 11.0312 129.631 12.0029 129.248 13.1207C128.77 14.5189 128.542 15.9982 128.576 17.4838C128.542 19.0272 128.785 20.5636 129.293 22.0119C129.675 23.1113 130.371 24.0589 131.286 24.7241C132.221 25.3517 133.313 25.6694 134.421 25.636C135.056 25.6455 135.688 25.55 136.295 25.353C136.818 25.1882 137.306 24.9216 137.736 24.5669C138.141 24.2105 138.478 23.7755 138.728 23.2855C138.996 22.7564 139.173 22.1815 139.251 21.5874L146.91 21.6503C146.802 22.9641 146.465 24.2458 145.917 25.4316C144.631 28.2444 142.367 30.4286 139.594 31.5321C137.618 32.2951 135.513 32.6232 133.412 32.4961C131.31 32.369 129.255 31.7894 127.374 30.7931C125.339 29.6244 123.672 27.8535 122.582 25.6989C121.341 23.1626 120.735 20.3353 120.82 17.4838C120.731 14.6181 121.348 11.7769 122.612 9.23715C123.724 7.08991 125.405 5.32858 127.449 4.16654C129.537 2.99921 131.871 2.40442 134.234 2.43703C135.879 2.42513 137.514 2.69054 139.079 3.22317C140.495 3.69265 141.812 4.44242 142.961 5.43223C144.088 6.40706 145.004 7.62384 145.648 9.00131C146.362 10.5061 146.791 12.143 146.91 13.8203Z" fill="#6D3F8C"/>
<path d="M136.959 9.24503V2.83798H161.123V9.24503H152.762V32.1217H145.297V9.24503H136.959Z" fill="#6D3F8C"/>
<path d="M171.552 32.1217V2.83797H183.555C185.435 2.79525 187.295 3.2379 188.975 4.12724C190.485 4.94361 191.741 6.19854 192.595 7.74348C193.484 9.40371 193.93 11.2861 193.887 13.1914C193.937 15.1026 193.476 16.99 192.558 18.6394C191.672 20.1821 190.374 21.4153 188.826 22.1849C187.089 23.0505 185.185 23.4759 183.264 23.427H176.098V17.2951H181.741C182.527 17.3195 183.306 17.1498 184.018 16.7998C184.625 16.4923 185.131 16.0027 185.474 15.3926C185.823 14.7326 185.998 13.9861 185.981 13.2307C186.001 12.4775 185.826 11.7329 185.474 11.0767C185.129 10.4782 184.622 10.0019 184.018 9.70884C183.304 9.36805 182.525 9.20401 181.741 9.22929H179.084V32.1217H171.552Z" fill="#6D3F8C"/>
<path d="M196.641 32.1217V2.83798H204.188V25.7147H215.431V32.1217H196.641Z" fill="#6D3F8C"/>
<path d="M225.695 32.1217H217.543L226.725 2.83798H237.042L246.223 32.1217H238.072L231.995 10.8959H231.771L225.695 32.1217ZM224.202 20.5655H239.52V26.5165H224.172L224.202 20.5655Z" fill="#6D3F8C"/>
<path d="M273.538 13.8204H265.879C265.836 13.1939 265.692 12.5797 265.453 12.0044C265.231 11.4725 264.908 10.9937 264.505 10.5972C264.073 10.1877 263.564 9.8772 263.012 9.68527C262.388 9.45834 261.731 9.34923 261.071 9.36295C259.932 9.32366 258.809 9.66185 257.861 10.3299C256.95 11.0312 256.259 12.003 255.876 13.1207C255.398 14.5189 255.17 15.9982 255.204 17.4838C255.164 19.0147 255.397 20.54 255.891 21.9805C256.27 23.0814 256.967 24.0298 257.884 24.6927C258.819 25.3203 259.911 25.6379 261.019 25.6046C261.654 25.6141 262.286 25.5186 262.893 25.3216C263.414 25.1586 263.9 24.8917 264.326 24.5355C264.736 24.1815 265.076 23.7461 265.326 23.2541C265.594 22.725 265.771 22.1501 265.849 21.556L273.508 21.6189C273.4 22.9327 273.063 24.2144 272.515 25.4002C271.243 28.2263 268.987 30.4279 266.215 31.5478C264.238 32.3108 262.134 32.6389 260.032 32.5118C257.93 32.3847 255.875 31.8051 253.994 30.8089C251.959 29.6402 250.293 27.8692 249.202 25.7147C247.958 23.1797 247.352 20.3514 247.44 17.4995C247.351 14.6338 247.968 11.7926 249.232 9.2529C250.345 7.10565 252.025 5.34433 254.069 4.18229C256.157 3.01496 258.491 2.42017 260.855 2.45278C262.499 2.44088 264.135 2.70628 265.699 3.23892C267.115 3.7084 268.433 4.45817 269.581 5.44798C270.708 6.42469 271.626 7.6409 272.276 9.01705C272.985 10.5184 273.413 12.149 273.538 13.8204Z" fill="#6D3F8C"/>
<path d="M276.949 32.1217V2.83798H296.985V9.24503H284.511V14.2763H295.97V20.6834H284.511V25.7147H296.948V32.1217H276.949Z" fill="#6D3F8C"/>
<path d="M34.4432 20.1488L37.4889 26.3829V29.3309C37.4879 29.409 37.5016 29.4865 37.5293 29.559C37.557 29.6314 37.5981 29.6973 37.6502 29.7529C37.7023 29.8085 37.7643 29.8527 37.8328 29.8828C37.9012 29.9129 37.9746 29.9284 38.0488 29.9284H44.1551C44.3042 29.9263 44.4466 29.8625 44.5514 29.7506C44.6562 29.6388 44.715 29.488 44.7149 29.3309V26.3829L47.7756 20.1488C47.8092 20.0711 47.8266 19.9866 47.8266 19.9012C47.8266 19.8157 47.8092 19.7313 47.7756 19.6535L41.6095 5.38508C41.5733 5.29743 41.5172 5.22051 41.4461 5.16114C41.375 5.10176 41.291 5.06176 41.2017 5.04466C41.1124 5.02756 41.0205 5.0339 40.9341 5.06311C40.8477 5.09232 40.7694 5.1435 40.7063 5.21213L39.3029 8.3567L34.4283 19.6535C34.3955 19.732 34.3798 19.8172 34.3824 19.903C34.3849 19.9887 34.4057 20.0727 34.4432 20.1488ZM43.5952 28.7413H38.6086V26.831H43.5952V28.7413ZM40.542 8.3567V15.9744C39.9635 16.1189 39.4554 16.4822 39.1144 16.9952C38.7734 17.5082 38.6232 18.1352 38.6922 18.7572C38.7613 19.3792 39.0449 19.9528 39.4891 20.3691C39.9333 20.7854 40.5073 21.0154 41.1019 21.0154C41.6966 21.0154 42.2705 20.7854 42.7147 20.3691C43.1589 19.9528 43.4425 19.3792 43.5116 18.7572C43.5807 18.1352 43.4304 17.5082 43.0894 16.9952C42.7484 16.4822 42.2404 16.1189 41.6618 15.9744V8.3567L46.6334 19.8579L43.8117 25.6439H38.3921L35.5629 19.8579L40.542 8.3567ZM42.4083 18.4665C42.4083 18.7386 42.3317 19.0045 42.1881 19.2308C42.0446 19.457 41.8405 19.6334 41.6018 19.7375C41.3631 19.8416 41.1005 19.8689 40.8471 19.8158C40.5936 19.7627 40.3609 19.6317 40.1782 19.4393C39.9955 19.2469 39.8711 19.0017 39.8207 18.7349C39.7702 18.468 39.7961 18.1914 39.895 17.94C39.9939 17.6886 40.1613 17.4737 40.3761 17.3226C40.591 17.1714 40.8435 17.0907 41.1019 17.0907C41.4478 17.0928 41.7789 17.2384 42.0235 17.4959C42.2681 17.7535 42.4063 18.1022 42.4083 18.4665Z" fill="#DFBE4F"/>
</g>
<defs>
<clipPath id="clip0">
<rect width="297" height="54" fill="white"/>
</clipPath>
</defs>
</svg>
