<svg width="209" height="36" viewBox="0 0 209 36" fill="none" xmlns="http://www.w3.org/2000/svg">
    <g clip-path="url(#clip0)">
    <path d="M6.53042 30.9792H5.8753C5.77939 30.4983 5.5179 30.0662 5.13633 29.7581C4.94514 29.5995 4.72671 29.4769 4.49169 29.3965C4.24122 29.3068 3.9768 29.2625 3.71079 29.2654C3.27513 29.2624 2.84773 29.3842 2.47917 29.6166C2.09038 29.8762 1.7818 30.2392 1.58821 30.6648C1.1482 31.7341 1.1482 32.9339 1.58821 34.0032C1.77938 34.4303 2.08847 34.7939 2.47917 35.0514C2.84674 35.2859 3.27481 35.408 3.71079 35.4026C3.9768 35.4055 4.24122 35.3612 4.49169 35.2715C4.96019 35.1128 5.35746 34.7935 5.61325 34.3701C5.73977 34.1601 5.82847 33.9295 5.8753 33.6888H6.53042C6.42232 34.3316 6.09444 34.917 5.60277 35.3449C5.35049 35.5572 5.06319 35.7239 4.75374 35.8376C4.41829 35.961 4.06294 36.0214 3.70555 36.0158C3.14901 36.0199 2.6031 35.8634 2.13327 35.565C1.65392 35.2409 1.27745 34.7862 1.04839 34.2548C0.791823 33.6442 0.659668 32.9885 0.659668 32.3261C0.659668 31.6638 0.791823 31.0081 1.04839 30.3975C1.27304 29.8784 1.63554 29.4307 2.09658 29.103C2.57391 28.7997 3.12964 28.643 3.69507 28.6522C4.05225 28.6493 4.40713 28.7096 4.74326 28.8304C5.05365 28.9421 5.34129 29.109 5.59229 29.3231C6.08396 29.751 6.41184 30.3364 6.51993 30.9792H6.53042Z" fill="white"/>
    <path d="M15.7228 32.3156C15.7387 32.9833 15.6043 33.646 15.3298 34.2548C15.0901 34.7713 14.713 35.2119 14.2397 35.5283C13.7585 35.823 13.2054 35.9789 12.6412 35.9789C12.077 35.9789 11.5238 35.823 11.0427 35.5283C10.5713 35.2112 10.196 34.7706 9.95782 34.2548C9.70125 33.6442 9.56909 32.9885 9.56909 32.3261C9.56909 31.6638 9.70125 31.0081 9.95782 30.3975C10.1991 29.8804 10.5781 29.4398 11.0532 29.1239C11.5333 28.8292 12.0857 28.6731 12.649 28.6731C13.2124 28.6731 13.7648 28.8292 14.2449 29.1239C14.7168 29.442 15.0936 29.8821 15.335 30.3975C15.6047 31.0003 15.7372 31.6554 15.7228 32.3156ZM15.0939 32.3156C15.1083 31.7515 14.9973 31.1913 14.769 30.6752C14.5843 30.2504 14.2825 29.8869 13.899 29.627C13.5245 29.3853 13.0869 29.2595 12.6412 29.2654C12.197 29.2587 11.7608 29.3846 11.3886 29.627C11.0035 29.8865 10.7 30.25 10.5134 30.6752C10.2846 31.1911 10.1736 31.7515 10.1884 32.3156C10.175 32.8791 10.2841 33.4388 10.5081 33.9561C10.6957 34.3807 10.999 34.7439 11.3834 35.0042C11.7564 35.2499 12.1946 35.3777 12.6412 35.3711C13.0869 35.377 13.5245 35.2512 13.899 35.0095C14.2841 34.75 14.5876 34.3865 14.7742 33.9613C15.0033 33.4436 15.1143 32.8815 15.0992 32.3156H15.0939Z" fill="white"/>
    <path d="M24.6798 28.7518V35.8795H24.0456L19.8529 29.91H19.8005V35.8795H19.1296V28.7518H19.7586L23.9827 34.7265H24.0404V28.7518H24.6798Z" fill="white"/>
    <path d="M32.2685 30.5337C32.2539 30.3474 32.1996 30.1663 32.1092 30.0027C32.0188 29.8391 31.8944 29.6967 31.7445 29.5851C31.4017 29.3436 30.9896 29.2203 30.5705 29.234C30.2697 29.2281 29.9712 29.2871 29.6952 29.4069C29.4575 29.5055 29.2523 29.669 29.103 29.8786C28.959 30.0762 28.8836 30.3155 28.8881 30.5599C28.8852 30.7334 28.9267 30.9049 29.0087 31.0578C29.0929 31.2102 29.2091 31.3425 29.3493 31.4456C29.4925 31.5505 29.6472 31.6384 29.8105 31.7077C29.9814 31.7778 30.1565 31.8373 30.3346 31.8859L31.0841 32.1008C31.3184 32.1647 31.5478 32.2452 31.7707 32.3418C31.9928 32.4381 32.2022 32.5613 32.3943 32.7087C32.58 32.851 32.7351 33.0292 32.8503 33.2328C32.9681 33.4665 33.0258 33.7259 33.018 33.9875C33.0273 34.3591 32.9231 34.7248 32.7193 35.0357C32.5092 35.3512 32.2151 35.6017 31.8702 35.7589C31.0398 36.0941 30.1117 36.0941 29.2812 35.7589C28.9403 35.6256 28.6416 35.4029 28.4165 35.1143C28.2093 34.8237 28.0893 34.4801 28.0706 34.1238H28.7414C28.7549 34.385 28.8523 34.635 29.0192 34.8365C29.1868 35.0392 29.4058 35.193 29.6533 35.282C29.9316 35.3855 30.2265 35.437 30.5233 35.434C30.8484 35.4406 31.1714 35.38 31.4719 35.2558C31.7337 35.1437 31.9602 34.9625 32.127 34.7317C32.285 34.5142 32.3678 34.2511 32.3629 33.9822C32.3697 33.765 32.3053 33.5515 32.1795 33.3743C32.0364 33.2003 31.8577 33.0591 31.6554 32.9603C31.4041 32.8399 31.1428 32.7417 30.8745 32.6668L30.0202 32.4152C29.5391 32.2885 29.0942 32.0517 28.7204 31.7234C28.5682 31.5789 28.4484 31.4038 28.3689 31.2095C28.2894 31.0153 28.252 30.8064 28.2592 30.5966C28.2512 30.2358 28.3576 29.8817 28.5632 29.5851C28.7788 29.2877 29.0677 29.0512 29.4018 28.8985C29.7741 28.7324 30.1785 28.6501 30.5862 28.6575C30.9907 28.6483 31.392 28.7307 31.7602 28.8985C32.0856 29.0486 32.367 29.2796 32.5778 29.5694C32.7766 29.8545 32.8877 30.1915 32.8975 30.539L32.2685 30.5337Z" fill="white"/>
    <path d="M35.9583 29.3493V28.7518H41.1258V29.3493H38.867V35.8795H38.2171V29.3493H35.9583Z" fill="white"/>
    <path d="M44.4119 35.8795V28.7518H46.7126C47.1514 28.7365 47.5872 28.8301 47.9809 29.0243C48.3033 29.1952 48.5678 29.4578 48.7409 29.779C48.9171 30.1206 49.0053 30.5006 48.9977 30.8849C49.0034 31.2622 48.9152 31.635 48.7409 31.9697C48.5659 32.2905 48.2971 32.5502 47.9705 32.714C47.5792 32.9041 47.1474 32.9958 46.7126 32.9812H44.763V32.4047H46.7074C47.0271 32.4147 47.3447 32.3501 47.635 32.2161C47.8611 32.1016 48.0447 31.918 48.1591 31.692C48.2859 31.4422 48.3489 31.1649 48.3426 30.8849C48.3477 30.6016 48.2848 30.3212 48.1591 30.0673C48.0314 29.8403 47.8376 29.6575 47.6036 29.5432C47.3202 29.4101 47.01 29.3438 46.6969 29.3493H45.0722V35.8795H44.4119ZM47.5564 32.6668L49.3069 35.8795H48.5574L46.8227 32.6668H47.5564Z" fill="white"/>
    <path d="M57.1735 28.7518H57.8234V33.4686C57.8295 33.9247 57.7118 34.3739 57.4827 34.7684C57.2524 35.1479 56.9249 35.4591 56.5341 35.6698C56.0954 35.8854 55.6131 35.9975 55.1243 35.9975C54.6355 35.9975 54.1532 35.8854 53.7145 35.6698C53.319 35.4638 52.9887 35.1516 52.7606 34.7684C52.5308 34.3762 52.4129 33.9284 52.42 33.4739V28.757H53.0699V33.432C53.0633 33.786 53.152 34.1354 53.3267 34.4435C53.4987 34.7278 53.7452 34.9598 54.0394 35.1143C54.3753 35.283 54.7459 35.3709 55.1217 35.3709C55.4975 35.3709 55.8681 35.283 56.2039 35.1143C56.5031 34.9528 56.7516 34.7115 56.9219 34.4173C57.0927 34.1078 57.1794 33.7591 57.1735 33.4058V28.7518Z" fill="white"/>
    <path d="M62.1892 28.7518V35.8795H61.5393V28.7518H62.1892Z" fill="white"/>
    <path d="M71.4602 28.7518V35.8795H70.826L66.6333 29.91H66.5599V35.8795H65.9048V28.7518H66.5599L70.7527 34.7265H70.8103V28.7518H71.4602Z" fill="white"/>
    <path d="M77.2673 35.8795H75.1709V28.7518H77.3826C77.9935 28.7345 78.5979 28.881 79.133 29.1763C79.6203 29.4608 80.0097 29.8867 80.2494 30.3975C80.5087 31.0028 80.6425 31.6545 80.6425 32.313C80.6425 32.9716 80.5087 33.6233 80.2494 34.2286C80.0017 34.7468 79.6011 35.1767 79.1016 35.4602C78.537 35.7571 77.9048 35.9016 77.2673 35.8795ZM75.826 35.2977H77.2254C77.762 35.3164 78.2939 35.1915 78.7662 34.9361C79.1783 34.6935 79.5031 34.3265 79.6938 33.8879C79.9133 33.3844 80.0189 32.8385 80.003 32.2894C80.0136 31.7498 79.91 31.214 79.6991 30.7172C79.5211 30.2819 79.209 29.9148 78.8081 29.669C78.364 29.4196 77.8602 29.2963 77.3511 29.3126H75.826V35.2977Z" fill="white"/>
    <path d="M89.8769 32.3156C89.8937 32.9839 89.7574 33.6472 89.4786 34.2548C89.2406 34.7723 88.8631 35.2133 88.3885 35.5283C87.9084 35.8231 87.356 35.9791 86.7926 35.9791C86.2293 35.9791 85.6769 35.8231 85.1968 35.5283C84.7208 35.2148 84.343 34.7734 84.1066 34.2548C83.8439 33.642 83.7085 32.9823 83.7085 32.3156C83.7085 31.649 83.8439 30.9892 84.1066 30.3765C84.346 29.8598 84.7232 29.4192 85.1968 29.1029C85.6769 28.8082 86.2293 28.6522 86.7926 28.6522C87.356 28.6522 87.9084 28.8082 88.3885 29.1029C88.865 29.4249 89.2425 29.8731 89.4786 30.3975C89.7543 30.9986 89.8905 31.6544 89.8769 32.3156ZM89.2428 32.3156C89.2587 31.7519 89.1496 31.1917 88.9231 30.6752C88.7364 30.25 88.4329 29.8865 88.0478 29.627C87.6718 29.3907 87.2367 29.2653 86.7926 29.2653C86.3485 29.2653 85.9134 29.3907 85.5374 29.627C85.1537 29.888 84.8505 30.2511 84.6622 30.6752C84.2362 31.7273 84.2362 32.9039 84.6622 33.9561C84.8479 34.3803 85.1494 34.7436 85.5322 35.0042C85.9085 35.2423 86.3447 35.3686 86.79 35.3686C87.2353 35.3686 87.6715 35.2423 88.0478 35.0042C88.4343 34.7463 88.7382 34.3823 88.9231 33.9561C89.1496 33.4396 89.2587 32.8794 89.2428 32.3156Z" fill="white"/>
    <path d="M103.404 28.7518V35.8795H102.77L98.5769 29.91H98.5298V35.8795H97.8799V28.7518H98.5088L102.723 34.7265H102.78V28.7518H103.404Z" fill="white"/>
    <path d="M112.968 32.3156C112.985 32.9839 112.849 33.6472 112.57 34.2548C112.331 34.7713 111.953 35.2119 111.48 35.5283C111 35.8231 110.448 35.9791 109.884 35.9791C109.321 35.9791 108.768 35.8231 108.288 35.5283C107.812 35.2148 107.435 34.7734 107.198 34.2548C106.936 33.642 106.8 32.9823 106.8 32.3156C106.8 31.649 106.936 30.9892 107.198 30.3765C107.436 29.8588 107.813 29.4177 108.288 29.1029C108.768 28.8082 109.321 28.6522 109.884 28.6522C110.448 28.6522 111 28.8082 111.48 29.1029C111.955 29.4267 112.332 29.8744 112.57 30.3975C112.846 30.9986 112.982 31.6544 112.968 32.3156ZM112.334 32.3156C112.348 31.7521 112.239 31.1924 112.015 30.6752C111.826 30.2511 111.523 29.888 111.139 29.627C110.763 29.3907 110.328 29.2653 109.884 29.2653C109.44 29.2653 109.005 29.3907 108.629 29.627C108.245 29.888 107.942 30.2511 107.754 30.6752C107.328 31.7273 107.328 32.9039 107.754 33.9561C107.938 34.3814 108.24 34.7451 108.624 35.0042C109 35.2423 109.436 35.3686 109.882 35.3686C110.327 35.3686 110.763 35.2423 111.139 35.0042C111.526 34.7463 111.83 34.3823 112.015 33.9561C112.241 33.4396 112.35 32.8794 112.334 32.3156Z" fill="white"/>
    <path d="M116.04 28.7518L118.267 35.0409H118.33L120.557 28.7518H121.239L118.65 35.8795H117.953L115.358 28.7518H116.04Z" fill="white"/>
    <path d="M123.686 35.8795H123L125.594 28.7518H126.307L128.901 35.8795H128.22L125.982 29.5903H125.935L123.686 35.8795ZM124.174 33.1489H127.711V33.7307H124.174V33.1489Z" fill="white"/>
    <path d="M135.798 30.5337C135.784 30.3471 135.73 30.1657 135.64 30.0019C135.55 29.8382 135.425 29.696 135.274 29.5851C134.931 29.3429 134.519 29.2195 134.1 29.234C133.799 29.2282 133.501 29.2871 133.225 29.4069C132.989 29.5086 132.784 29.6714 132.632 29.8786C132.491 30.0774 132.416 30.3159 132.418 30.5599C132.414 30.7342 132.457 30.9063 132.543 31.0578C132.624 31.2006 132.735 31.324 132.868 31.4194C133.013 31.5222 133.167 31.61 133.33 31.6815C133.5 31.7514 133.675 31.8109 133.854 31.8597L134.603 32.0746C134.836 32.1385 135.063 32.2191 135.284 32.3156C135.507 32.4107 135.717 32.534 135.908 32.6825C136.094 32.8248 136.249 33.003 136.364 33.2066C136.485 33.443 136.545 33.7062 136.537 33.9718C136.545 34.3426 136.443 34.7075 136.243 35.02C136.032 35.3344 135.738 35.5846 135.394 35.7432C134.562 36.0787 133.632 36.0787 132.8 35.7432C132.465 35.5992 132.176 35.3674 131.962 35.0724C131.754 34.7818 131.634 34.4382 131.616 34.0818H132.287C132.3 34.3431 132.397 34.5931 132.564 34.7946C132.732 34.9972 132.951 35.1511 133.198 35.2401C133.477 35.344 133.772 35.3955 134.068 35.3921C134.394 35.3983 134.716 35.3376 135.017 35.2139C135.277 35.1009 135.502 34.9199 135.667 34.6898C135.829 34.4738 135.913 34.21 135.908 33.9403C135.916 33.7222 135.849 33.5078 135.719 33.3324C135.578 33.1572 135.399 33.0158 135.195 32.9184C134.946 32.7979 134.686 32.6997 134.42 32.6249L133.565 32.3733C133.084 32.2477 132.639 32.0107 132.266 31.6815C132.113 31.5373 131.992 31.3623 131.912 31.1681C131.831 30.9738 131.793 30.7648 131.799 30.5547C131.793 30.1934 131.901 29.8393 132.108 29.5432C132.321 29.2455 132.609 29.0088 132.942 28.8566C133.316 28.691 133.722 28.6087 134.131 28.6155C134.536 28.6069 134.937 28.6893 135.305 28.8566C135.63 29.0058 135.91 29.237 136.118 29.5275C136.318 29.8121 136.431 30.1491 136.443 30.497L135.798 30.5337Z" fill="white"/>
    <path d="M147.202 28.7518H147.852V33.8932C147.866 34.2958 147.78 34.6956 147.601 35.0566C147.452 35.3534 147.214 35.5955 146.919 35.7484C146.612 35.9063 146.269 35.9855 145.924 35.9791C145.582 35.9856 145.244 35.9158 144.933 35.7747C144.655 35.6478 144.417 35.4465 144.247 35.1929C144.081 34.9333 143.995 34.6308 144 34.3229H144.65C144.647 34.521 144.706 34.7152 144.818 34.8785C144.932 35.0443 145.09 35.1749 145.274 35.2558C145.481 35.3511 145.706 35.3978 145.934 35.3921C146.166 35.3966 146.395 35.3425 146.6 35.2348C146.795 35.1189 146.952 34.9474 147.05 34.7422C147.168 34.4751 147.223 34.1848 147.213 33.8932L147.202 28.7518Z" fill="white"/>
    <path d="M157.412 32.3156C157.428 32.9833 157.293 33.646 157.019 34.2548C156.781 34.7723 156.403 35.2133 155.929 35.5283C155.448 35.8231 154.896 35.9791 154.333 35.9791C153.769 35.9791 153.217 35.8231 152.737 35.5283C152.261 35.2148 151.883 34.7734 151.647 34.2548C151.384 33.642 151.249 32.9823 151.249 32.3156C151.249 31.649 151.384 30.9892 151.647 30.3765C151.884 29.8588 152.262 29.4177 152.737 29.1029C153.217 28.8082 153.769 28.6522 154.333 28.6522C154.896 28.6522 155.448 28.8082 155.929 29.1029C156.405 29.4249 156.783 29.8731 157.019 30.3975C157.29 30.9998 157.424 31.655 157.412 32.3156ZM156.783 32.3156C156.797 31.7515 156.686 31.1913 156.458 30.6752C156.273 30.2504 155.971 29.8869 155.588 29.627C155.212 29.3907 154.777 29.2653 154.333 29.2653C153.889 29.2653 153.453 29.3907 153.077 29.627C152.694 29.888 152.391 30.2511 152.202 30.6752C151.776 31.7273 151.776 32.9039 152.202 33.9561C152.386 34.3814 152.688 34.7451 153.072 35.0042C153.449 35.2423 153.885 35.3686 154.33 35.3686C154.775 35.3686 155.212 35.2423 155.588 35.0042C155.973 34.7447 156.276 34.3813 156.463 33.9561C156.69 33.4396 156.799 32.8794 156.783 32.3156Z" fill="white"/>
    <path d="M160.813 35.8795V28.7518H163.114C163.553 28.7365 163.988 28.8301 164.382 29.0243C164.708 29.1935 164.977 29.4563 165.152 29.779C165.329 30.1206 165.417 30.5006 165.409 30.8849C165.418 31.2675 165.329 31.646 165.152 31.9855C164.978 32.3063 164.709 32.5659 164.382 32.7297C163.991 32.9198 163.559 33.0116 163.124 32.997H161.164V32.4047H163.103C163.423 32.4159 163.741 32.3512 164.031 32.2161C164.269 32.1082 164.465 31.9237 164.586 31.692C164.713 31.4422 164.776 31.1649 164.77 30.8849C164.775 30.6016 164.712 30.3212 164.586 30.0673C164.459 29.8403 164.265 29.6575 164.031 29.5432C163.74 29.4061 163.42 29.3397 163.098 29.3493H161.463V35.8795H160.813ZM163.958 32.6668L165.708 35.8795H164.959L163.219 32.6668H163.958Z" fill="white"/>
    <path d="M174.371 28.7518V35.8795H173.742L169.55 29.91H169.492V35.8795H168.842V28.7518H169.471L173.7 34.7265H173.753V28.7518H174.371Z" fill="white"/>
    <path d="M178.103 35.8795H177.421L180.01 28.7518H180.707L183.302 35.8795H182.62L180.383 29.5903H180.335L178.103 35.8795ZM178.59 33.1489H182.128V33.7307H178.59V33.1489Z" fill="white"/>
    <path d="M188.433 35.8795H186.336V28.7518H188.548C189.159 28.7345 189.763 28.881 190.299 29.1763C190.787 29.4615 191.177 29.887 191.42 30.3975C191.68 31.0028 191.813 31.6545 191.813 32.313C191.813 32.9716 191.68 33.6233 191.42 34.2286C191.165 34.7487 190.755 35.177 190.246 35.455C189.688 35.7501 189.064 35.8963 188.433 35.8795ZM186.997 35.2977H188.396C188.933 35.3164 189.465 35.1915 189.937 34.9361C190.349 34.6935 190.674 34.3265 190.865 33.8879C191.273 32.8651 191.273 31.7243 190.865 30.7014C190.687 30.2662 190.375 29.899 189.974 29.6532C189.53 29.4038 189.026 29.2806 188.517 29.2969H186.997V35.2977Z" fill="white"/>
    <path d="M194.879 35.8795H194.198L196.787 28.7518H197.484L200.078 35.8795H199.397L197.159 29.5903H197.112L194.879 35.8795ZM195.366 33.1489H198.904V33.7307H195.366V33.1489Z" fill="white"/>
    <path d="M207.017 30.5337C207.003 30.3472 206.949 30.1659 206.859 30.0022C206.768 29.8385 206.643 29.6962 206.493 29.5851C206.152 29.3436 205.742 29.2203 205.324 29.234C205.022 29.2274 204.721 29.2864 204.444 29.4069C204.208 29.5071 204.005 29.6703 203.857 29.8786C203.713 30.0762 203.637 30.3155 203.642 30.5599C203.639 30.7334 203.68 30.9049 203.762 31.0578C203.843 31.2019 203.956 31.3256 204.093 31.4194C204.236 31.5243 204.39 31.6122 204.554 31.6815C204.725 31.7516 204.9 31.8111 205.078 31.8597L205.827 32.0745C206.06 32.1377 206.288 32.2183 206.509 32.3156C206.733 32.4107 206.944 32.534 207.138 32.6825C207.323 32.8248 207.478 33.003 207.594 33.2066C207.712 33.444 207.771 33.7065 207.766 33.9718C207.776 34.3434 207.672 34.709 207.468 35.02C207.256 35.3344 206.963 35.5846 206.619 35.7432C205.788 36.0784 204.86 36.0784 204.03 35.7432C203.683 35.6175 203.377 35.4002 203.144 35.1143C202.937 34.8237 202.817 34.4801 202.798 34.1238H203.469C203.482 34.385 203.58 34.635 203.747 34.8365C203.914 35.0392 204.133 35.193 204.381 35.282C204.659 35.3859 204.954 35.4375 205.251 35.434C205.576 35.4406 205.899 35.38 206.199 35.2558C206.461 35.1437 206.688 34.9625 206.855 34.7317C207.013 34.5142 207.095 34.2511 207.09 33.9822C207.098 33.7641 207.032 33.5498 206.902 33.3743C206.76 33.1991 206.581 33.0577 206.378 32.9603C206.129 32.839 205.869 32.7407 205.602 32.6668L204.748 32.4152C204.267 32.2885 203.822 32.0517 203.448 31.7234C203.296 31.5789 203.176 31.4038 203.096 31.2095C203.017 31.0153 202.98 30.8064 202.987 30.5966C202.979 30.2358 203.085 29.8817 203.291 29.5851C203.505 29.2867 203.794 29.0499 204.129 28.8985C204.502 28.7324 204.906 28.6501 205.314 28.6575C205.718 28.6483 206.12 28.7307 206.488 28.8985C206.812 29.0477 207.092 29.279 207.3 29.5694C207.503 29.8529 207.616 30.1906 207.625 30.539L207.017 30.5337Z" fill="white"/>
    <path d="M18.3014 9.2136H12.9242C12.8945 8.79595 12.7934 8.38649 12.6255 8.00294C12.4677 7.64939 12.2415 7.33056 11.9599 7.06481C11.6572 6.7907 11.3 6.58354 10.9117 6.45686C10.4737 6.30558 10.0124 6.23283 9.54908 6.24198C8.76314 6.22453 7.99089 6.44962 7.33741 6.88662C6.6978 7.35413 6.21237 8.00199 5.94332 8.74715C5.60776 9.67926 5.44783 10.6655 5.47163 11.6559C5.43416 12.6822 5.59063 13.7063 5.93284 14.6747C6.20439 15.4016 6.69523 16.0261 7.33741 16.4618C7.99376 16.8802 8.76056 17.092 9.5386 17.0698C9.98426 17.0761 10.4282 17.0124 10.8541 16.8811C11.2211 16.7712 11.5642 16.5935 11.8656 16.357C12.1571 16.1178 12.3992 15.824 12.5783 15.4922C12.7665 15.1395 12.8907 14.7562 12.9452 14.3602L18.3224 14.4021C18.2464 15.278 18.0101 16.1325 17.6254 16.923C17.2057 17.8063 16.6305 18.607 15.9273 19.2867C15.1418 20.0386 14.2157 20.6281 13.202 21.0214C12.0007 21.4842 10.7208 21.7085 9.43378 21.6818C7.75663 21.711 6.09947 21.3143 4.61736 20.5288C3.18809 19.748 2.01711 18.5679 1.24744 17.1327C0.375357 15.4419 -0.0537949 13.5576 9.45753e-05 11.6559C-0.0626021 9.7454 0.370753 7.85128 1.25792 6.15813C2.03927 4.72663 3.21894 3.55242 4.65405 2.77772C6.12474 1.99693 7.76885 1.60033 9.43378 1.62472C10.5883 1.61678 11.7366 1.79372 12.8352 2.14881C13.829 2.4618 14.754 2.96164 15.5604 3.62152C16.3514 4.2714 16.9947 5.08259 17.4472 6.0009C17.9374 7.00633 18.2275 8.09746 18.3014 9.2136Z" fill="white"/>
    <path d="M39.8888 11.6559C39.961 13.8755 39.4534 16.0756 38.4161 18.0393C37.5003 19.7097 36.1181 21.0773 34.4382 21.9753C32.7178 22.8776 30.799 23.3352 28.8566 23.3065C26.9061 23.336 24.9796 22.8746 23.254 21.9648C21.5815 21.0574 20.2059 19.6873 19.2919 18.0184C18.2563 16.0616 17.7487 13.8686 17.8192 11.6559C17.7462 9.43508 18.2519 7.23348 19.2866 5.26716C20.1997 3.60153 21.5759 2.23622 23.2488 1.33645C24.9771 0.429716 26.9051 -0.0297408 28.8566 1.58829e-05C30.7995 -0.0269156 32.7182 0.432504 34.4382 1.33645C36.1167 2.23403 37.4985 3.5995 38.4161 5.26716C39.4527 7.23299 39.9602 9.43462 39.8888 11.6559Z" fill="white"/>
    <path d="M55.1506 1.892V21.4145H50.7272L43.6729 11.158H43.5576V21.4145H38.259V1.892H42.7558L49.6948 12.1118H49.8467V1.892H55.1506Z" fill="white"/>
    <path d="M72.0263 1.892V21.4145H67.6082L60.5487 11.158H60.4334V21.4145H55.1348V1.892H59.6367L66.56 12.1118H66.712V1.892H72.0263Z" fill="white"/>
    <path d="M72.0105 21.4145V1.892H86.0824V6.16336H77.3143V9.51756H85.3592V13.7889H77.3143V17.1431H86.0457V21.4145H72.0105Z" fill="white"/>
    <path d="M103.142 9.21357H97.7647C97.7349 8.79592 97.6339 8.38646 97.4659 8.00291C97.31 7.6483 97.0835 7.32912 96.8003 7.06478C96.4976 6.79067 96.1404 6.58351 95.7522 6.45683C95.3141 6.30555 94.8528 6.2328 94.3895 6.24195C93.5894 6.21575 92.8012 6.44122 92.1359 6.88659C91.4963 7.3541 91.0109 8.00196 90.7418 8.74712C90.4063 9.67923 90.2463 10.6655 90.2701 11.6558C90.2461 12.6848 90.4168 13.7091 90.7733 14.6746C91.0415 15.4075 91.5304 16.0393 92.1726 16.4827C92.8289 16.9011 93.5958 17.1129 94.3738 17.0907C94.8195 17.097 95.2633 17.0333 95.6893 16.902C96.0563 16.7922 96.3994 16.6144 96.7008 16.3779C96.9855 16.1403 97.2222 15.8503 97.3978 15.5237C97.586 15.1709 97.7102 14.7877 97.7647 14.3916L103.142 14.4335C103.066 15.3094 102.83 16.1639 102.445 16.9544C101.542 18.8296 99.9526 20.2857 98.0058 21.0214C96.618 21.5301 95.1406 21.7488 93.665 21.6641C92.1894 21.5793 90.7468 21.1929 89.4263 20.5287C87.9972 19.7496 86.8275 18.569 86.0617 17.1326C85.1908 15.4417 84.7651 13.5569 84.8248 11.6558C84.7621 9.74537 85.1955 7.85125 86.0826 6.1581C86.864 4.7266 88.0436 3.55239 89.4787 2.77769C90.9448 1.99947 92.5831 1.60295 94.2428 1.62469C95.3973 1.61675 96.5456 1.79369 97.6441 2.14878C98.638 2.46177 99.563 2.96162 100.369 3.62149C101.16 4.27137 101.804 5.08256 102.256 6.00087C102.757 7.00407 103.058 8.0953 103.142 9.21357Z" fill="white"/>
    <path d="M96.1555 6.16336V1.892H113.12V6.16336H107.251V21.4145H102.01V6.16336H96.1555Z" fill="white"/>
    <path d="M120.442 21.4145V1.89199H128.87C130.189 1.86351 131.495 2.15861 132.674 2.7515C133.735 3.29575 134.617 4.13237 135.216 5.16233C135.84 6.26915 136.154 7.52406 136.123 8.7943C136.158 10.0684 135.835 11.3267 135.19 12.4263C134.568 13.4547 133.657 14.2769 132.57 14.7899C131.351 15.367 130.013 15.6506 128.665 15.618H123.634V11.5301H127.596C128.147 11.5463 128.695 11.4332 129.194 11.1999C129.62 10.9948 129.976 10.6684 130.216 10.2618C130.462 9.82172 130.585 9.32411 130.573 8.82051C130.587 8.31836 130.463 7.82194 130.216 7.38449C129.974 6.98549 129.618 6.66794 129.194 6.47257C128.693 6.24538 128.146 6.13602 127.596 6.15287H125.73V21.4145H120.442Z" fill="white"/>
    <path d="M138.057 21.4145V1.892H143.355V17.1431H151.248V21.4145H138.057Z" fill="white"/>
    <path d="M158.455 21.4145H152.731L159.178 1.892H166.421L172.867 21.4145H167.144L162.878 7.26396H162.721L158.455 21.4145ZM157.406 13.7103H168.161V17.6777H157.385L157.406 13.7103Z" fill="white"/>
    <path d="M192.044 9.21358H186.666C186.637 8.79594 186.536 8.38648 186.368 8.00293C186.212 7.64832 185.985 7.32914 185.702 7.0648C185.399 6.79182 185.042 6.5848 184.654 6.45685C184.216 6.30556 183.755 6.23282 183.291 6.24197C182.491 6.21577 181.703 6.44124 181.038 6.88661C180.398 7.35412 179.913 8.00197 179.644 8.74714C179.308 9.67925 179.148 10.6655 179.172 11.6559C179.144 12.6765 179.307 13.6933 179.654 14.6537C179.92 15.3876 180.41 16.0198 181.053 16.4618C181.71 16.8802 182.477 17.092 183.255 17.0697C183.7 17.076 184.144 17.0124 184.57 16.8811C184.936 16.7724 185.278 16.5945 185.576 16.357C185.864 16.121 186.103 15.8307 186.279 15.5027C186.467 15.15 186.591 14.7667 186.645 14.3707L192.023 14.4126C191.947 15.2885 191.71 16.143 191.326 16.9335C190.433 18.8175 188.849 20.2853 186.902 21.0319C185.514 21.5406 184.037 21.7593 182.562 21.6746C181.086 21.5898 179.643 21.2034 178.323 20.5392C176.894 19.7601 175.724 18.5795 174.958 17.1431C174.085 15.4531 173.659 13.5676 173.721 11.6663C173.659 9.75587 174.092 7.86175 174.979 6.1686C175.76 4.7371 176.94 3.56289 178.375 2.78819C179.841 2.00997 181.48 1.61345 183.139 1.63519C184.294 1.62725 185.442 1.80419 186.541 2.15928C187.535 2.47226 188.46 2.97211 189.266 3.63198C190.057 4.28313 190.702 5.09393 191.158 6.01137C191.655 7.01225 191.956 8.09933 192.044 9.21358Z" fill="white"/>
    <path d="M194.439 21.4145V1.892H208.506V6.16336H199.748V9.51756H207.793V13.7889H199.748V17.1431H208.479V21.4145H194.439Z" fill="white"/>
    <path d="M24.1818 13.4325L26.3201 17.5886V19.5539C26.3194 19.606 26.3291 19.6577 26.3485 19.706C26.368 19.7543 26.3968 19.7982 26.4334 19.8353C26.47 19.8723 26.5135 19.9018 26.5616 19.9218C26.6096 19.9419 26.6611 19.9523 26.7132 19.9523H31.0003C31.105 19.9509 31.205 19.9083 31.2785 19.8338C31.3521 19.7592 31.3934 19.6587 31.3934 19.5539V17.5886L33.5421 13.4325C33.5657 13.3807 33.578 13.3244 33.578 13.2674C33.578 13.2105 33.5657 13.1542 33.5421 13.1023L29.2131 3.59005C29.1877 3.53161 29.1483 3.48033 29.0984 3.44075C29.0484 3.40117 28.9895 3.3745 28.9268 3.3631C28.8641 3.3517 28.7996 3.35592 28.7389 3.3754C28.6783 3.39487 28.6233 3.42899 28.579 3.47475L27.5937 5.57112L24.1713 13.1023C24.1483 13.1547 24.1373 13.2115 24.1391 13.2686C24.1409 13.3258 24.1555 13.3818 24.1818 13.4325ZM30.6072 19.1609H27.1063V17.8873H30.6072V19.1609ZM28.4637 5.57112V10.6496C28.0575 10.7459 27.7008 10.9881 27.4614 11.3301C27.2219 11.6721 27.1165 12.0901 27.165 12.5048C27.2135 12.9194 27.4126 13.3018 27.7244 13.5794C28.0363 13.8569 28.4393 14.0102 28.8567 14.0102C29.2742 14.0102 29.6772 13.8569 29.989 13.5794C30.3009 13.3018 30.5 12.9194 30.5485 12.5048C30.597 12.0901 30.4915 11.6721 30.2521 11.3301C30.0127 10.9881 29.656 10.7459 29.2498 10.6496V5.57112L32.7403 13.2386L30.7592 17.0959H26.9543L24.968 13.2386L28.4637 5.57112ZM29.7739 12.311C29.7739 12.4924 29.7201 12.6697 29.6193 12.8205C29.5186 12.9713 29.3753 13.0889 29.2077 13.1583C29.0401 13.2277 28.8557 13.2459 28.6778 13.2105C28.4999 13.1751 28.3365 13.0878 28.2082 12.9595C28.0799 12.8312 27.9926 12.6678 27.9572 12.4899C27.9218 12.312 27.94 12.1276 28.0094 11.96C28.0788 11.7924 28.1964 11.6492 28.3472 11.5484C28.498 11.4476 28.6753 11.3938 28.8567 11.3938C29.0996 11.3952 29.332 11.4922 29.5038 11.664C29.6755 11.8357 29.7725 12.0681 29.7739 12.311Z" fill="#6D3F8C"/>
    </g>
    <defs>
    <clipPath id="clip0">
    <rect width="208.516" height="36" fill="white"/>
    </clipPath>
    </defs>
    </svg>